<svg width="796" height="712" viewBox="0 0 796 712" fill="none" xmlns="http://www.w3.org/2000/svg">
<g clip-path="url(#clip0)">
<path d="M97.079 554.447L88.1888 519.382C72.425 512.701 56.297 506.915 39.8816 502.051L38.759 518.347L34.2072 500.393C13.8494 494.58 0 492.02 0 492.02C0 492.02 18.7074 563.158 57.9448 617.544L103.665 625.575L68.1462 630.696C73.0839 636.636 78.3904 642.26 84.0342 647.534C141.113 700.515 204.689 724.824 226.034 701.828C247.379 678.832 218.411 617.24 161.332 564.258C143.637 547.833 121.408 534.652 99.157 524.279L97.079 554.447Z" fill="#E6E6E6"/>
<path d="M181.632 516.367L192.147 481.755C182.106 467.887 171.29 454.597 159.752 441.948L150.368 455.318L155.751 437.597C141.329 422.097 130.797 412.746 130.797 412.746C130.797 412.746 110.04 483.314 115.516 550.153L150.504 580.661L117.451 566.685C118.607 574.322 120.243 581.879 122.349 589.311C143.825 664.17 185.683 717.841 215.842 709.189C246.001 700.537 253.04 632.837 231.564 557.978C224.907 534.771 212.691 511.998 199.005 491.616L181.632 516.367Z" fill="#E6E6E6"/>
<path d="M682.18 657.941L688.795 650.797C687.994 646.258 686.938 641.769 685.631 637.349L681.787 639.483L685.174 635.825C683.504 630.377 682.053 626.874 682.053 626.874C682.053 626.874 668.731 641.521 662.198 658.349L667.083 669.849L660.723 662.579C660.105 664.565 659.613 666.587 659.249 668.634C655.648 689.285 659.473 707.202 667.793 708.653C676.113 710.104 685.777 694.539 689.378 673.888C690.368 667.29 690.34 660.58 689.297 653.991L682.18 657.941Z" fill="#E6E6E6"/>
<path d="M780.049 672.071L789.406 669.375C791.066 665.075 792.482 660.686 793.648 656.228L789.254 656.067L794.045 654.687C795.432 649.159 796 645.411 796 645.411C796 645.411 777.024 651.063 762.734 662.092L760.971 674.462L759.284 664.951C757.729 666.331 756.262 667.807 754.893 669.371C741.135 685.188 735.148 702.504 741.521 708.046C747.893 713.589 764.211 705.26 777.969 689.443C782.226 684.306 785.671 678.548 788.184 672.368L780.049 672.071Z" fill="#E6E6E6"/>
<path d="M518.497 48.2916V660.455C518.494 673.262 513.406 685.544 504.35 694.6C495.294 703.655 483.012 708.744 470.205 708.747H232.312C219.502 708.748 207.215 703.662 198.155 694.606C189.096 685.549 184.004 673.265 184 660.455V48.2916C184.004 35.4815 189.096 23.1974 198.156 14.1413C207.215 5.08505 219.502 -0.00163041 232.312 -1.48741e-05H261.17C259.753 3.4847 259.214 7.26411 259.599 11.0061C259.985 14.748 261.284 18.3379 263.382 21.4602C265.48 24.5825 268.313 27.1417 271.632 28.9127C274.951 30.6837 278.654 31.6124 282.416 31.6171H418.047C421.809 31.6124 425.512 30.6838 428.831 28.9128C432.15 27.1418 434.983 24.5826 437.081 21.4603C439.179 18.338 440.478 14.748 440.864 11.0061C441.249 7.26413 440.71 3.4847 439.293 3.84705e-07H470.205C483.012 0.0025906 495.294 5.09126 504.35 14.1471C513.406 23.203 518.494 35.4846 518.497 48.2916V48.2916Z" fill="#3F3D56"/>
<path d="M317.728 253.541C317.727 249.347 318.831 245.227 320.928 241.595C323.025 237.963 326.042 234.948 329.674 232.853C326.042 230.754 321.922 229.649 317.727 229.648C313.533 229.647 309.412 230.751 305.779 232.848C302.146 234.944 299.129 237.961 297.032 241.593C294.934 245.225 293.83 249.346 293.83 253.541C293.83 257.735 294.934 261.856 297.032 265.488C299.129 269.121 302.146 272.137 305.779 274.233C309.412 276.33 313.533 277.434 317.727 277.433C321.922 277.432 326.042 276.327 329.674 274.228C326.042 272.133 323.025 269.118 320.928 265.486C318.831 261.854 317.727 257.734 317.728 253.541V253.541Z" fill="white"/>
<path d="M347.764 253.541C347.763 249.347 348.867 245.227 350.964 241.595C353.061 237.963 356.078 234.948 359.71 232.853C356.078 230.754 351.958 229.649 347.763 229.648C343.569 229.647 339.448 230.751 335.815 232.848C332.182 234.944 329.165 237.961 327.068 241.593C324.97 245.225 323.866 249.346 323.866 253.541C323.866 257.735 324.97 261.856 327.068 265.488C329.165 269.121 332.182 272.137 335.815 274.233C339.448 276.33 343.569 277.434 347.763 277.433C351.958 277.432 356.078 276.327 359.71 274.228C356.078 272.133 353.061 269.118 350.964 265.486C348.867 261.854 347.763 257.734 347.764 253.541V253.541Z" fill="white"/>
<path d="M377.117 277.433C390.313 277.433 401.01 266.736 401.01 253.541C401.01 240.345 390.313 229.648 377.117 229.648C363.922 229.648 353.225 240.345 353.225 253.541C353.225 266.736 363.922 277.433 377.117 277.433Z" fill="#00B0FF"/>
<path d="M458.139 409.904H244.574V411.904H458.139V409.904Z" fill="white"/>
<path d="M251.319 397.416C255.043 397.416 258.063 394.396 258.063 390.671C258.063 386.947 255.043 383.927 251.319 383.927C247.594 383.927 244.575 386.947 244.575 390.671C244.575 394.396 247.594 397.416 251.319 397.416Z" fill="#00B0FF"/>
<path d="M458.139 477.345H244.574V479.345H458.139V477.345Z" fill="white"/>
<path d="M251.319 464.857C255.043 464.857 258.063 461.838 258.063 458.113C258.063 454.388 255.043 451.369 251.319 451.369C247.594 451.369 244.575 454.388 244.575 458.113C244.575 461.838 247.594 464.857 251.319 464.857Z" fill="#00B0FF"/>
<path d="M417.046 328.164H277.799C276.473 328.163 275.202 327.635 274.265 326.698C273.328 325.761 272.8 324.49 272.799 323.164V183.917C272.8 182.592 273.328 181.321 274.265 180.383C275.202 179.446 276.473 178.919 277.799 178.917H417.046C418.372 178.919 419.642 179.446 420.58 180.383C421.517 181.321 422.044 182.592 422.046 183.917V323.164C422.044 324.49 421.517 325.761 420.58 326.698C419.642 327.635 418.372 328.163 417.046 328.164V328.164ZM277.799 180.917C277.003 180.918 276.241 181.234 275.678 181.797C275.116 182.359 274.8 183.122 274.799 183.917V323.164C274.8 323.96 275.116 324.722 275.678 325.285C276.241 325.847 277.003 326.163 277.799 326.164H417.046C417.841 326.163 418.604 325.847 419.166 325.285C419.729 324.722 420.045 323.96 420.046 323.164V183.917C420.045 183.122 419.729 182.359 419.166 181.797C418.604 181.234 417.841 180.918 417.046 180.917H277.799Z" fill="white"/>
<path d="M454.139 522.182H386.83C384.62 522.182 382.83 523.973 382.83 526.182V549.655C382.83 551.864 384.62 553.655 386.83 553.655H454.139C456.348 553.655 458.139 551.864 458.139 549.655V526.182C458.139 523.973 456.348 522.182 454.139 522.182Z" fill="#00B0FF"/>
<path d="M644.521 325.082C644.521 325.082 641.753 342.615 644.521 345.383C647.289 348.151 626.988 371.221 626.988 371.221L610.378 348.151C610.378 348.151 617.76 336.155 614.992 326.004L644.521 325.082Z" fill="#FFB8B8"/>
<path d="M583.621 457.039L571.62 585.306L576.23 684.967L598.377 678.508L599.304 588.998L625.145 511.485L640.829 595.459L638.98 680.355L666.664 681.279L668.513 587.155L671.756 455.695L583.621 457.039Z" fill="#2F2E41"/>
<path d="M639.907 677.586V697.888C639.907 697.888 635.293 712.652 650.058 711.73C664.822 710.807 663.899 704.347 663.899 704.347L658.363 679.432L639.907 677.586Z" fill="#2F2E41"/>
<path d="M597.459 677.586V697.888C597.459 697.888 602.073 712.652 587.308 711.73C572.543 710.807 573.466 704.347 573.466 704.347L579.003 679.432L597.459 677.586Z" fill="#2F2E41"/>
<path d="M628.833 335.232C640.555 335.232 650.058 325.73 650.058 314.008C650.058 302.286 640.555 292.784 628.833 292.784C617.112 292.784 607.609 302.286 607.609 314.008C607.609 325.73 617.112 335.232 628.833 335.232Z" fill="#FFB8B8"/>
<path d="M627.911 361.07L629.756 351.842H634.37L643.293 339.008L650.98 346.306L652.826 389.677H602.995L607.609 343.537L614.329 339.008C614.329 339.008 613.146 354.611 626.065 354.611L627.911 361.07Z" fill="#575A89"/>
<path d="M608.532 350.92C608.532 350.92 616.174 360.594 627.579 359.909C638.984 359.225 650.058 349.997 650.058 349.997L665.745 469.959C665.745 469.959 648.212 471.805 642.675 462.577L600.227 461.654L601.15 349.997L608.532 350.92Z" fill="#D0CDE1"/>
<path d="M614.762 337.416L574.389 357.379L584.54 414.592C584.54 414.592 588.231 435.816 584.54 444.121C580.849 452.426 577.157 507.794 577.157 507.794C577.157 507.794 618.683 512.407 613.146 446.889C607.609 381.372 614.762 337.416 614.762 337.416Z" fill="#2F2E41"/>
<path d="M590.076 475.496L595.613 481.033C595.613 481.033 612.223 509.639 619.606 499.488C626.988 489.338 606.687 471.805 606.687 471.805L597.459 464.422L590.076 475.496Z" fill="#FFB8B8"/>
<path d="M643.314 337.416L683.278 357.379L669.436 425.665C669.436 425.665 670.359 447.812 674.973 459.809C679.587 471.805 677.741 506.871 677.741 506.871C677.741 506.871 672.204 528.095 660.208 475.496C648.212 422.897 643.314 337.416 643.314 337.416Z" fill="#2F2E41"/>
<path d="M674.05 442.276H665.745C665.745 442.276 638.061 438.584 639.907 449.658C641.753 460.731 667.591 457.963 667.591 457.963L677.741 457.04L674.05 442.276Z" fill="#FFB8B8"/>
<path d="M579.926 354.611L573.466 357.379C573.466 357.379 567.007 371.221 566.084 375.835C565.161 380.449 554.088 435.816 556.856 442.276C559.624 448.735 587.308 482.878 587.308 482.878L602.995 466.268L579.926 434.893L586.385 395.213L579.926 354.611Z" fill="#2F2E41"/>
<path d="M669.436 355.534L681.646 356.564L684.201 357.379C684.201 357.379 710.039 427.511 704.502 438.584C698.965 449.658 674.973 469.959 674.973 469.959L668.513 441.353L680.51 430.279L668.513 393.368L669.436 355.534Z" fill="#2F2E41"/>
<path d="M646.79 297.643C646.79 297.643 652.343 287.223 640.127 286.276C640.127 286.276 629.022 279.646 620.138 287.223C620.138 287.223 612.365 285.329 610.144 291.012C610.144 291.012 609.033 288.171 612.365 286.276C612.365 286.276 604.591 284.382 604.591 293.854C604.591 293.854 601.26 303.326 604.591 311.85C607.923 320.375 609.033 321.322 609.033 321.322C609.033 321.322 603.558 303.45 616.884 302.502C630.21 301.555 645.124 293.38 646.235 303.799C647.345 314.219 649.566 317.06 649.566 317.06C649.566 317.06 659.561 301.905 646.79 297.643Z" fill="#2F2E41"/>
</g>
<defs>
<clipPath id="clip0">
<rect width="796" height="711.771" fill="white"/>
</clipPath>
</defs>
</svg>
