<svg id="logo" width="108" height="78" viewBox="0 0 108 78" fill="none" xmlns="http://www.w3.org/2000/svg">
<g >
<g id="diploma">
<path id="Vector" d="M4.68048 39.3273C5.85021 36.968 6.51179 34.9132 6.15816 34.7376C5.80453 34.562 4.5696 36.3322 3.39987 38.6914C2.23014 41.0506 1.56856 43.1055 1.92219 43.2811C2.27582 43.4567 3.51075 41.6865 4.68048 39.3273Z" fill="#E0E0E0"/>
<path id="Vector_2" d="M64.0182 68.8181C65.1879 66.4589 65.9414 64.4497 65.7011 64.3304C65.4608 64.2111 64.3178 66.0269 63.1481 68.3861C61.9783 70.7453 61.2249 72.7545 61.4651 72.8738C61.7054 72.9932 62.8484 71.1773 64.0182 68.8181Z" fill="#E0E0E0"/>
<path id="Vector_3" d="M32.1318 56.8915L29.9271 55.0697L23.8589 62.4239L26.0636 64.2457L32.1318 56.8915Z" fill="#F55F44"/>
<path id="Vector_4" opacity="0.05" d="M27.0618 64.8324L30.1934 65.5692L32.3747 56.2851L29.2432 55.5483L27.0618 64.8324Z" fill="black"/>
<path id="Vector_5" d="M27.4102 64.9144L30.1935 65.5692L32.3748 56.2851L29.5915 55.6302L27.4102 64.9144Z" fill="#F55F44"/>
<path id="Vector_6" d="M6.26405 34.524L1.81628 43.4947L61.3642 73.0619L65.812 64.0912L6.26405 34.524Z" fill="url(#paint0_linear)"/>
<path id="Vector_7" d="M61.4701 72.8483C60.3046 72.2888 1.06846 42.8573 1.9222 43.2812C5.20997 38.2594 6.15816 34.7377 6.15816 34.7377L65.7061 64.3048C65.7061 64.3048 63.6149 67.9775 61.4701 72.8483Z" fill="#F5F5F5"/>
<path id="Vector_8" opacity="0.05" d="M37.106 50.1041L32.197 47.6666L27.9611 56.2101L32.87 58.6476L37.106 50.1041Z" fill="black"/>
<path id="Vector_9" d="M36.8926 49.9981L32.4105 47.7726L28.1745 56.3161L32.6566 58.5416L36.8926 49.9981Z" fill="#F55F44"/>
<path id="Vector_10" opacity="0.05" d="M36.0388 49.5742L33.0508 48.0905L28.8148 56.634L31.8029 58.1176L36.0388 49.5742Z" fill="black"/>
<path id="Vector_11" d="M35.8254 49.4682L33.2642 48.1965L29.0282 56.74L31.5894 58.0117L35.8254 49.4682Z" fill="#F55F44"/>
</g>
<path id="Vector_12" d="M35.4805 77.0234C35.6999 77.0234 35.8778 76.8454 35.8778 76.6258C35.8778 76.4063 35.6999 76.2283 35.4805 76.2283C35.2611 76.2283 35.0833 76.4063 35.0833 76.6258C35.0833 76.8454 35.2611 77.0234 35.4805 77.0234Z" fill="#DBDBDB"/>
<g id="Group" opacity="0.5">
<path id="Vector_13" opacity="0.5" d="M4.39856 65.4939H3.99121V67.8039H4.39856V65.4939Z" fill="#47E6B1"/>
<path id="Vector_14" opacity="0.5" d="M5.34903 66.8527V66.4451H3.04074V66.8527H5.34903Z" fill="#47E6B1"/>
</g>
<g id="Group_2" opacity="0.5">
<path id="Vector_15" opacity="0.5" d="M103.737 26.0889H103.33V28.3988H103.737V26.0889Z" fill="#47E6B1"/>
<path id="Vector_16" opacity="0.5" d="M104.688 27.4477V27.04H102.379V27.4477H104.688Z" fill="#47E6B1"/>
</g>
<g id="Group_3" opacity="0.5">
<path id="Vector_17" opacity="0.5" d="M6.84262 8.01691H6.43527V10.3269H6.84262V8.01691Z" fill="#47E6B1"/>
<path id="Vector_18" opacity="0.5" d="M7.79309 9.37572V8.96808H5.4848V9.37572H7.79309Z" fill="#47E6B1"/>
</g>
<g id="Group_4" opacity="0.5">
<path id="Vector_19" opacity="0.5" d="M94.8291 4.48401H94.4218V6.79396H94.8291V4.48401Z" fill="#47E6B1"/>
<path id="Vector_20" opacity="0.5" d="M95.7796 5.84282V5.43518H93.4713V5.84282H95.7796Z" fill="#47E6B1"/>
</g>
<g class="sparkles">
<path id="Vector_21" opacity="0.5" d="M1.66872 34.4395C1.55646 34.3906 1.4661 34.3021 1.41484 34.1908C1.36357 34.0795 1.35498 33.9533 1.39071 33.8361C1.39649 33.8181 1.40013 33.7995 1.40155 33.7807V33.7807C1.40482 33.727 1.39072 33.6737 1.36133 33.6287C1.33195 33.5836 1.28885 33.5492 1.23842 33.5306C1.18798 33.512 1.1329 33.5101 1.08132 33.5253C1.02974 33.5404 0.984418 33.5718 0.952057 33.6148V33.6148C0.940928 33.63 0.931635 33.6465 0.92437 33.6639C0.875481 33.7763 0.787021 33.8667 0.675829 33.918C0.564638 33.9693 0.438478 33.9779 0.321364 33.9422C0.30341 33.9364 0.284835 33.9327 0.266027 33.9313V33.9313C0.212371 33.928 0.159089 33.9421 0.114074 33.9715C0.0690598 34.0009 0.0347066 34.0441 0.0161022 34.0946C-0.00250231 34.145 -0.00436762 34.2001 0.0107816 34.2518C0.0259308 34.3034 0.0572884 34.3487 0.100212 34.3811V34.3811C0.115441 34.3923 0.13193 34.4016 0.149338 34.4088C0.261593 34.4577 0.351954 34.5463 0.403218 34.6575C0.454482 34.7688 0.463069 34.8951 0.427349 35.0123C0.421568 35.0302 0.417926 35.0488 0.416498 35.0676V35.0676C0.413232 35.1213 0.427336 35.1746 0.456719 35.2197C0.486102 35.2647 0.529203 35.2991 0.579637 35.3177C0.630071 35.3364 0.685157 35.3382 0.736734 35.3231C0.788311 35.3079 0.833636 35.2765 0.865998 35.2336V35.2336C0.877126 35.2183 0.88642 35.2018 0.893684 35.1844C0.942574 35.0721 1.03103 34.9816 1.14222 34.9303C1.25342 34.879 1.37958 34.8705 1.49669 34.9062C1.51464 34.912 1.53322 34.9156 1.55203 34.9171V34.9171C1.60568 34.9203 1.65897 34.9062 1.70398 34.8768C1.749 34.8474 1.78335 34.8043 1.80196 34.7538C1.82056 34.7033 1.82243 34.6482 1.80728 34.5966C1.79213 34.545 1.76077 34.4996 1.71784 34.4672C1.70261 34.4561 1.68612 34.4468 1.66872 34.4395V34.4395Z" fill="#4D8AF0"/>
<path id="Vector_22" opacity="0.5" d="M25.0231 7.67129C24.9109 7.62236 24.8205 7.53384 24.7693 7.42257C24.718 7.31129 24.7094 7.18504 24.7451 7.06785C24.7509 7.04988 24.7546 7.03129 24.756 7.01247V7.01247C24.7593 6.95877 24.7452 6.90545 24.7158 6.8604C24.6864 6.81536 24.6433 6.78098 24.5928 6.76236C24.5424 6.74374 24.4873 6.74187 24.4358 6.75704C24.3842 6.7722 24.3388 6.80358 24.3065 6.84653V6.84653C24.2954 6.86177 24.2861 6.87828 24.2788 6.8957C24.2299 7.00803 24.1415 7.09846 24.0303 7.14976C23.9191 7.20106 23.7929 7.20965 23.6758 7.17391C23.6578 7.16812 23.6393 7.16448 23.6205 7.16305V7.16305C23.5668 7.15978 23.5135 7.17389 23.4685 7.2033C23.4235 7.2327 23.3891 7.27584 23.3705 7.32631C23.3519 7.37678 23.3501 7.4319 23.3652 7.48351C23.3804 7.53513 23.4117 7.58049 23.4546 7.61287V7.61287C23.4699 7.62401 23.4864 7.63331 23.5038 7.64058C23.616 7.6895 23.7064 7.77803 23.7576 7.8893C23.8089 8.00057 23.8175 8.12682 23.7818 8.24402C23.776 8.26198 23.7724 8.28057 23.7709 8.29939V8.29939C23.7677 8.35309 23.7818 8.40641 23.8112 8.45146C23.8405 8.49651 23.8836 8.53089 23.9341 8.5495C23.9845 8.56812 24.0396 8.56999 24.0912 8.55483C24.1427 8.53967 24.1881 8.50828 24.2204 8.46533C24.2316 8.45009 24.2409 8.43359 24.2481 8.41617C24.297 8.30383 24.3855 8.21341 24.4967 8.1621C24.6078 8.1108 24.734 8.10221 24.8511 8.13796C24.8691 8.14374 24.8876 8.14739 24.9065 8.14881V8.14881C24.9601 8.15208 25.0134 8.13797 25.0584 8.10857C25.1034 8.07916 25.1378 8.03603 25.1564 7.98556C25.175 7.93509 25.1769 7.87996 25.1617 7.82835C25.1466 7.77674 25.1152 7.73138 25.0723 7.69899V7.69899C25.057 7.68786 25.0406 7.67856 25.0231 7.67129V7.67129Z" fill="#4D8AF0"/>
<path id="Vector_23" opacity="0.5" d="M53.5373 77.1057C53.4251 77.0567 53.3347 76.9682 53.2835 76.8569C53.2322 76.7457 53.2236 76.6194 53.2593 76.5022C53.2651 76.4843 53.2688 76.4657 53.2702 76.4469V76.4469C53.2734 76.3932 53.2593 76.3398 53.23 76.2948C53.2006 76.2497 53.1575 76.2154 53.107 76.1967C53.0566 76.1781 53.0015 76.1763 52.9499 76.1914C52.8984 76.2066 52.853 76.238 52.8207 76.2809C52.8095 76.2962 52.8003 76.3127 52.793 76.3301C52.7441 76.4424 52.6556 76.5328 52.5445 76.5841C52.4333 76.6354 52.3071 76.644 52.19 76.6083C52.172 76.6025 52.1535 76.5989 52.1346 76.5974V76.5974C52.081 76.5942 52.0277 76.6083 51.9827 76.6377C51.9377 76.6671 51.9033 76.7102 51.8847 76.7607C51.8661 76.8112 51.8643 76.8663 51.8794 76.9179C51.8946 76.9695 51.9259 77.0149 51.9688 77.0472C51.9841 77.0584 52.0006 77.0677 52.018 77.075C52.1302 77.1239 52.2206 77.2124 52.2718 77.3237C52.3231 77.4349 52.3317 77.5612 52.296 77.6784C52.2902 77.6964 52.2866 77.7149 52.2851 77.7338V77.7338C52.2819 77.7875 52.296 77.8408 52.3253 77.8858C52.3547 77.9309 52.3978 77.9653 52.4483 77.9839C52.4987 78.0025 52.5538 78.0044 52.6054 77.9892C52.6569 77.974 52.7023 77.9427 52.7346 77.8997V77.8997C52.7457 77.8845 52.755 77.868 52.7623 77.8505C52.8112 77.7382 52.8997 77.6478 53.0108 77.5965C53.122 77.5452 53.2482 77.5366 53.3653 77.5723C53.3833 77.5781 53.4018 77.5818 53.4207 77.5832V77.5832C53.4743 77.5865 53.5276 77.5723 53.5726 77.5429C53.6176 77.5135 53.652 77.4704 53.6706 77.4199C53.6892 77.3695 53.6911 77.3143 53.6759 77.2627C53.6608 77.2111 53.6294 77.1658 53.5865 77.1334V77.1334C53.5712 77.1222 53.5548 77.1129 53.5373 77.1057V77.1057Z" fill="#4D8AF0"/>
<path id="Vector_24" opacity="0.5" d="M103.112 61.1458C103.562 61.1458 103.926 60.7808 103.926 60.3305C103.926 59.8802 103.562 59.5152 103.112 59.5152C102.662 59.5152 102.297 59.8802 102.297 60.3305C102.297 60.7808 102.662 61.1458 103.112 61.1458Z" fill="#F55F44"/>
<path id="Vector_25" opacity="0.5" d="M85.1886 66.3092C85.6386 66.3092 86.0033 65.9442 86.0033 65.4939C86.0033 65.0437 85.6386 64.6786 85.1886 64.6786C84.7387 64.6786 84.374 65.0437 84.374 65.4939C84.374 65.9442 84.7387 66.3092 85.1886 66.3092Z" fill="#4D8AF0"/>
<path id="Vector_26" opacity="0.5" d="M14.0391 74.3261C14.489 74.3261 14.8537 73.9611 14.8537 73.5108C14.8537 73.0605 14.489 72.6955 14.0391 72.6955C13.5891 72.6955 13.2244 73.0605 13.2244 73.5108C13.2244 73.9611 13.5891 74.3261 14.0391 74.3261Z" fill="#47E6B1"/>
<path id="Vector_27" opacity="0.5" d="M55.8599 1.63055C56.3098 1.63055 56.6746 1.26554 56.6746 0.815277C56.6746 0.365012 56.3098 0 55.8599 0C55.4099 0 55.0452 0.365012 55.0452 0.815277C55.0452 1.26554 55.4099 1.63055 55.8599 1.63055Z" fill="#F55F44"/>
</g>
<g class="sparkles">
<path id="Vector_21" opacity="0.5" d="M1.66872 34.4395C1.55646 34.3906 1.4661 34.3021 1.41484 34.1908C1.36357 34.0795 1.35498 33.9533 1.39071 33.8361C1.39649 33.8181 1.40013 33.7995 1.40155 33.7807V33.7807C1.40482 33.727 1.39072 33.6737 1.36133 33.6287C1.33195 33.5836 1.28885 33.5492 1.23842 33.5306C1.18798 33.512 1.1329 33.5101 1.08132 33.5253C1.02974 33.5404 0.984418 33.5718 0.952057 33.6148V33.6148C0.940928 33.63 0.931635 33.6465 0.92437 33.6639C0.875481 33.7763 0.787021 33.8667 0.675829 33.918C0.564638 33.9693 0.438478 33.9779 0.321364 33.9422C0.30341 33.9364 0.284835 33.9327 0.266027 33.9313V33.9313C0.212371 33.928 0.159089 33.9421 0.114074 33.9715C0.0690598 34.0009 0.0347066 34.0441 0.0161022 34.0946C-0.00250231 34.145 -0.00436762 34.2001 0.0107816 34.2518C0.0259308 34.3034 0.0572884 34.3487 0.100212 34.3811V34.3811C0.115441 34.3923 0.13193 34.4016 0.149338 34.4088C0.261593 34.4577 0.351954 34.5463 0.403218 34.6575C0.454482 34.7688 0.463069 34.8951 0.427349 35.0123C0.421568 35.0302 0.417926 35.0488 0.416498 35.0676V35.0676C0.413232 35.1213 0.427336 35.1746 0.456719 35.2197C0.486102 35.2647 0.529203 35.2991 0.579637 35.3177C0.630071 35.3364 0.685157 35.3382 0.736734 35.3231C0.788311 35.3079 0.833636 35.2765 0.865998 35.2336V35.2336C0.877126 35.2183 0.88642 35.2018 0.893684 35.1844C0.942574 35.0721 1.03103 34.9816 1.14222 34.9303C1.25342 34.879 1.37958 34.8705 1.49669 34.9062C1.51464 34.912 1.53322 34.9156 1.55203 34.9171V34.9171C1.60568 34.9203 1.65897 34.9062 1.70398 34.8768C1.749 34.8474 1.78335 34.8043 1.80196 34.7538C1.82056 34.7033 1.82243 34.6482 1.80728 34.5966C1.79213 34.545 1.76077 34.4996 1.71784 34.4672C1.70261 34.4561 1.68612 34.4468 1.66872 34.4395V34.4395Z" fill="#4D8AF0"/>
<path id="Vector_22" opacity="0.5" d="M25.0231 7.67129C24.9109 7.62236 24.8205 7.53384 24.7693 7.42257C24.718 7.31129 24.7094 7.18504 24.7451 7.06785C24.7509 7.04988 24.7546 7.03129 24.756 7.01247V7.01247C24.7593 6.95877 24.7452 6.90545 24.7158 6.8604C24.6864 6.81536 24.6433 6.78098 24.5928 6.76236C24.5424 6.74374 24.4873 6.74187 24.4358 6.75704C24.3842 6.7722 24.3388 6.80358 24.3065 6.84653V6.84653C24.2954 6.86177 24.2861 6.87828 24.2788 6.8957C24.2299 7.00803 24.1415 7.09846 24.0303 7.14976C23.9191 7.20106 23.7929 7.20965 23.6758 7.17391C23.6578 7.16812 23.6393 7.16448 23.6205 7.16305V7.16305C23.5668 7.15978 23.5135 7.17389 23.4685 7.2033C23.4235 7.2327 23.3891 7.27584 23.3705 7.32631C23.3519 7.37678 23.3501 7.4319 23.3652 7.48351C23.3804 7.53513 23.4117 7.58049 23.4546 7.61287V7.61287C23.4699 7.62401 23.4864 7.63331 23.5038 7.64058C23.616 7.6895 23.7064 7.77803 23.7576 7.8893C23.8089 8.00057 23.8175 8.12682 23.7818 8.24402C23.776 8.26198 23.7724 8.28057 23.7709 8.29939V8.29939C23.7677 8.35309 23.7818 8.40641 23.8112 8.45146C23.8405 8.49651 23.8836 8.53089 23.9341 8.5495C23.9845 8.56812 24.0396 8.56999 24.0912 8.55483C24.1427 8.53967 24.1881 8.50828 24.2204 8.46533C24.2316 8.45009 24.2409 8.43359 24.2481 8.41617C24.297 8.30383 24.3855 8.21341 24.4967 8.1621C24.6078 8.1108 24.734 8.10221 24.8511 8.13796C24.8691 8.14374 24.8876 8.14739 24.9065 8.14881V8.14881C24.9601 8.15208 25.0134 8.13797 25.0584 8.10857C25.1034 8.07916 25.1378 8.03603 25.1564 7.98556C25.175 7.93509 25.1769 7.87996 25.1617 7.82835C25.1466 7.77674 25.1152 7.73138 25.0723 7.69899V7.69899C25.057 7.68786 25.0406 7.67856 25.0231 7.67129V7.67129Z" fill="#4D8AF0"/>
<path id="Vector_23" opacity="0.5" d="M53.5373 77.1057C53.4251 77.0567 53.3347 76.9682 53.2835 76.8569C53.2322 76.7457 53.2236 76.6194 53.2593 76.5022C53.2651 76.4843 53.2688 76.4657 53.2702 76.4469V76.4469C53.2734 76.3932 53.2593 76.3398 53.23 76.2948C53.2006 76.2497 53.1575 76.2154 53.107 76.1967C53.0566 76.1781 53.0015 76.1763 52.9499 76.1914C52.8984 76.2066 52.853 76.238 52.8207 76.2809C52.8095 76.2962 52.8003 76.3127 52.793 76.3301C52.7441 76.4424 52.6556 76.5328 52.5445 76.5841C52.4333 76.6354 52.3071 76.644 52.19 76.6083C52.172 76.6025 52.1535 76.5989 52.1346 76.5974V76.5974C52.081 76.5942 52.0277 76.6083 51.9827 76.6377C51.9377 76.6671 51.9033 76.7102 51.8847 76.7607C51.8661 76.8112 51.8643 76.8663 51.8794 76.9179C51.8946 76.9695 51.9259 77.0149 51.9688 77.0472C51.9841 77.0584 52.0006 77.0677 52.018 77.075C52.1302 77.1239 52.2206 77.2124 52.2718 77.3237C52.3231 77.4349 52.3317 77.5612 52.296 77.6784C52.2902 77.6964 52.2866 77.7149 52.2851 77.7338V77.7338C52.2819 77.7875 52.296 77.8408 52.3253 77.8858C52.3547 77.9309 52.3978 77.9653 52.4483 77.9839C52.4987 78.0025 52.5538 78.0044 52.6054 77.9892C52.6569 77.974 52.7023 77.9427 52.7346 77.8997V77.8997C52.7457 77.8845 52.755 77.868 52.7623 77.8505C52.8112 77.7382 52.8997 77.6478 53.0108 77.5965C53.122 77.5452 53.2482 77.5366 53.3653 77.5723C53.3833 77.5781 53.4018 77.5818 53.4207 77.5832V77.5832C53.4743 77.5865 53.5276 77.5723 53.5726 77.5429C53.6176 77.5135 53.652 77.4704 53.6706 77.4199C53.6892 77.3695 53.6911 77.3143 53.6759 77.2627C53.6608 77.2111 53.6294 77.1658 53.5865 77.1334V77.1334C53.5712 77.1222 53.5548 77.1129 53.5373 77.1057V77.1057Z" fill="#4D8AF0"/>
<path id="Vector_24" opacity="0.5" d="M103.112 61.1458C103.562 61.1458 103.926 60.7808 103.926 60.3305C103.926 59.8802 103.562 59.5152 103.112 59.5152C102.662 59.5152 102.297 59.8802 102.297 60.3305C102.297 60.7808 102.662 61.1458 103.112 61.1458Z" fill="#F55F44"/>
<path id="Vector_25" opacity="0.5" d="M85.1886 66.3092C85.6386 66.3092 86.0033 65.9442 86.0033 65.4939C86.0033 65.0437 85.6386 64.6786 85.1886 64.6786C84.7387 64.6786 84.374 65.0437 84.374 65.4939C84.374 65.9442 84.7387 66.3092 85.1886 66.3092Z" fill="#4D8AF0"/>
<path id="Vector_26" opacity="0.5" d="M14.0391 74.3261C14.489 74.3261 14.8537 73.9611 14.8537 73.5108C14.8537 73.0605 14.489 72.6955 14.0391 72.6955C13.5891 72.6955 13.2244 73.0605 13.2244 73.5108C13.2244 73.9611 13.5891 74.3261 14.0391 74.3261Z" fill="#47E6B1"/>
<path id="Vector_27" opacity="0.5" d="M55.8599 1.63055C56.3098 1.63055 56.6746 1.26554 56.6746 0.815277C56.6746 0.365012 56.3098 0 55.8599 0C55.4099 0 55.0452 0.365012 55.0452 0.815277C55.0452 1.26554 55.4099 1.63055 55.8599 1.63055Z" fill="#F55F44"/>
</g>
<g class="sparkles">
<path id="Vector_21" opacity="0.5" d="M1.66872 34.4395C1.55646 34.3906 1.4661 34.3021 1.41484 34.1908C1.36357 34.0795 1.35498 33.9533 1.39071 33.8361C1.39649 33.8181 1.40013 33.7995 1.40155 33.7807V33.7807C1.40482 33.727 1.39072 33.6737 1.36133 33.6287C1.33195 33.5836 1.28885 33.5492 1.23842 33.5306C1.18798 33.512 1.1329 33.5101 1.08132 33.5253C1.02974 33.5404 0.984418 33.5718 0.952057 33.6148V33.6148C0.940928 33.63 0.931635 33.6465 0.92437 33.6639C0.875481 33.7763 0.787021 33.8667 0.675829 33.918C0.564638 33.9693 0.438478 33.9779 0.321364 33.9422C0.30341 33.9364 0.284835 33.9327 0.266027 33.9313V33.9313C0.212371 33.928 0.159089 33.9421 0.114074 33.9715C0.0690598 34.0009 0.0347066 34.0441 0.0161022 34.0946C-0.00250231 34.145 -0.00436762 34.2001 0.0107816 34.2518C0.0259308 34.3034 0.0572884 34.3487 0.100212 34.3811V34.3811C0.115441 34.3923 0.13193 34.4016 0.149338 34.4088C0.261593 34.4577 0.351954 34.5463 0.403218 34.6575C0.454482 34.7688 0.463069 34.8951 0.427349 35.0123C0.421568 35.0302 0.417926 35.0488 0.416498 35.0676V35.0676C0.413232 35.1213 0.427336 35.1746 0.456719 35.2197C0.486102 35.2647 0.529203 35.2991 0.579637 35.3177C0.630071 35.3364 0.685157 35.3382 0.736734 35.3231C0.788311 35.3079 0.833636 35.2765 0.865998 35.2336V35.2336C0.877126 35.2183 0.88642 35.2018 0.893684 35.1844C0.942574 35.0721 1.03103 34.9816 1.14222 34.9303C1.25342 34.879 1.37958 34.8705 1.49669 34.9062C1.51464 34.912 1.53322 34.9156 1.55203 34.9171V34.9171C1.60568 34.9203 1.65897 34.9062 1.70398 34.8768C1.749 34.8474 1.78335 34.8043 1.80196 34.7538C1.82056 34.7033 1.82243 34.6482 1.80728 34.5966C1.79213 34.545 1.76077 34.4996 1.71784 34.4672C1.70261 34.4561 1.68612 34.4468 1.66872 34.4395V34.4395Z" fill="#4D8AF0"/>
<path id="Vector_22" opacity="0.5" d="M25.0231 7.67129C24.9109 7.62236 24.8205 7.53384 24.7693 7.42257C24.718 7.31129 24.7094 7.18504 24.7451 7.06785C24.7509 7.04988 24.7546 7.03129 24.756 7.01247V7.01247C24.7593 6.95877 24.7452 6.90545 24.7158 6.8604C24.6864 6.81536 24.6433 6.78098 24.5928 6.76236C24.5424 6.74374 24.4873 6.74187 24.4358 6.75704C24.3842 6.7722 24.3388 6.80358 24.3065 6.84653V6.84653C24.2954 6.86177 24.2861 6.87828 24.2788 6.8957C24.2299 7.00803 24.1415 7.09846 24.0303 7.14976C23.9191 7.20106 23.7929 7.20965 23.6758 7.17391C23.6578 7.16812 23.6393 7.16448 23.6205 7.16305V7.16305C23.5668 7.15978 23.5135 7.17389 23.4685 7.2033C23.4235 7.2327 23.3891 7.27584 23.3705 7.32631C23.3519 7.37678 23.3501 7.4319 23.3652 7.48351C23.3804 7.53513 23.4117 7.58049 23.4546 7.61287V7.61287C23.4699 7.62401 23.4864 7.63331 23.5038 7.64058C23.616 7.6895 23.7064 7.77803 23.7576 7.8893C23.8089 8.00057 23.8175 8.12682 23.7818 8.24402C23.776 8.26198 23.7724 8.28057 23.7709 8.29939V8.29939C23.7677 8.35309 23.7818 8.40641 23.8112 8.45146C23.8405 8.49651 23.8836 8.53089 23.9341 8.5495C23.9845 8.56812 24.0396 8.56999 24.0912 8.55483C24.1427 8.53967 24.1881 8.50828 24.2204 8.46533C24.2316 8.45009 24.2409 8.43359 24.2481 8.41617C24.297 8.30383 24.3855 8.21341 24.4967 8.1621C24.6078 8.1108 24.734 8.10221 24.8511 8.13796C24.8691 8.14374 24.8876 8.14739 24.9065 8.14881V8.14881C24.9601 8.15208 25.0134 8.13797 25.0584 8.10857C25.1034 8.07916 25.1378 8.03603 25.1564 7.98556C25.175 7.93509 25.1769 7.87996 25.1617 7.82835C25.1466 7.77674 25.1152 7.73138 25.0723 7.69899V7.69899C25.057 7.68786 25.0406 7.67856 25.0231 7.67129V7.67129Z" fill="#4D8AF0"/>
<path id="Vector_23" opacity="0.5" d="M53.5373 77.1057C53.4251 77.0567 53.3347 76.9682 53.2835 76.8569C53.2322 76.7457 53.2236 76.6194 53.2593 76.5022C53.2651 76.4843 53.2688 76.4657 53.2702 76.4469V76.4469C53.2734 76.3932 53.2593 76.3398 53.23 76.2948C53.2006 76.2497 53.1575 76.2154 53.107 76.1967C53.0566 76.1781 53.0015 76.1763 52.9499 76.1914C52.8984 76.2066 52.853 76.238 52.8207 76.2809C52.8095 76.2962 52.8003 76.3127 52.793 76.3301C52.7441 76.4424 52.6556 76.5328 52.5445 76.5841C52.4333 76.6354 52.3071 76.644 52.19 76.6083C52.172 76.6025 52.1535 76.5989 52.1346 76.5974V76.5974C52.081 76.5942 52.0277 76.6083 51.9827 76.6377C51.9377 76.6671 51.9033 76.7102 51.8847 76.7607C51.8661 76.8112 51.8643 76.8663 51.8794 76.9179C51.8946 76.9695 51.9259 77.0149 51.9688 77.0472C51.9841 77.0584 52.0006 77.0677 52.018 77.075C52.1302 77.1239 52.2206 77.2124 52.2718 77.3237C52.3231 77.4349 52.3317 77.5612 52.296 77.6784C52.2902 77.6964 52.2866 77.7149 52.2851 77.7338V77.7338C52.2819 77.7875 52.296 77.8408 52.3253 77.8858C52.3547 77.9309 52.3978 77.9653 52.4483 77.9839C52.4987 78.0025 52.5538 78.0044 52.6054 77.9892C52.6569 77.974 52.7023 77.9427 52.7346 77.8997V77.8997C52.7457 77.8845 52.755 77.868 52.7623 77.8505C52.8112 77.7382 52.8997 77.6478 53.0108 77.5965C53.122 77.5452 53.2482 77.5366 53.3653 77.5723C53.3833 77.5781 53.4018 77.5818 53.4207 77.5832V77.5832C53.4743 77.5865 53.5276 77.5723 53.5726 77.5429C53.6176 77.5135 53.652 77.4704 53.6706 77.4199C53.6892 77.3695 53.6911 77.3143 53.6759 77.2627C53.6608 77.2111 53.6294 77.1658 53.5865 77.1334V77.1334C53.5712 77.1222 53.5548 77.1129 53.5373 77.1057V77.1057Z" fill="#4D8AF0"/>
<path id="Vector_24" opacity="0.5" d="M103.112 61.1458C103.562 61.1458 103.926 60.7808 103.926 60.3305C103.926 59.8802 103.562 59.5152 103.112 59.5152C102.662 59.5152 102.297 59.8802 102.297 60.3305C102.297 60.7808 102.662 61.1458 103.112 61.1458Z" fill="#F55F44"/>
<path id="Vector_25" opacity="0.5" d="M85.1886 66.3092C85.6386 66.3092 86.0033 65.9442 86.0033 65.4939C86.0033 65.0437 85.6386 64.6786 85.1886 64.6786C84.7387 64.6786 84.374 65.0437 84.374 65.4939C84.374 65.9442 84.7387 66.3092 85.1886 66.3092Z" fill="#4D8AF0"/>
<path id="Vector_26" opacity="0.5" d="M14.0391 74.3261C14.489 74.3261 14.8537 73.9611 14.8537 73.5108C14.8537 73.0605 14.489 72.6955 14.0391 72.6955C13.5891 72.6955 13.2244 73.0605 13.2244 73.5108C13.2244 73.9611 13.5891 74.3261 14.0391 74.3261Z" fill="#47E6B1"/>
<path id="Vector_27" opacity="0.5" d="M55.8599 1.63055C56.3098 1.63055 56.6746 1.26554 56.6746 0.815277C56.6746 0.365012 56.3098 0 55.8599 0C55.4099 0 55.0452 0.365012 55.0452 0.815277C55.0452 1.26554 55.4099 1.63055 55.8599 1.63055Z" fill="#F55F44"/>
</g>
<g class="sparkles">
<path id="Vector_21" opacity="0.5" d="M1.66872 34.4395C1.55646 34.3906 1.4661 34.3021 1.41484 34.1908C1.36357 34.0795 1.35498 33.9533 1.39071 33.8361C1.39649 33.8181 1.40013 33.7995 1.40155 33.7807V33.7807C1.40482 33.727 1.39072 33.6737 1.36133 33.6287C1.33195 33.5836 1.28885 33.5492 1.23842 33.5306C1.18798 33.512 1.1329 33.5101 1.08132 33.5253C1.02974 33.5404 0.984418 33.5718 0.952057 33.6148V33.6148C0.940928 33.63 0.931635 33.6465 0.92437 33.6639C0.875481 33.7763 0.787021 33.8667 0.675829 33.918C0.564638 33.9693 0.438478 33.9779 0.321364 33.9422C0.30341 33.9364 0.284835 33.9327 0.266027 33.9313V33.9313C0.212371 33.928 0.159089 33.9421 0.114074 33.9715C0.0690598 34.0009 0.0347066 34.0441 0.0161022 34.0946C-0.00250231 34.145 -0.00436762 34.2001 0.0107816 34.2518C0.0259308 34.3034 0.0572884 34.3487 0.100212 34.3811V34.3811C0.115441 34.3923 0.13193 34.4016 0.149338 34.4088C0.261593 34.4577 0.351954 34.5463 0.403218 34.6575C0.454482 34.7688 0.463069 34.8951 0.427349 35.0123C0.421568 35.0302 0.417926 35.0488 0.416498 35.0676V35.0676C0.413232 35.1213 0.427336 35.1746 0.456719 35.2197C0.486102 35.2647 0.529203 35.2991 0.579637 35.3177C0.630071 35.3364 0.685157 35.3382 0.736734 35.3231C0.788311 35.3079 0.833636 35.2765 0.865998 35.2336V35.2336C0.877126 35.2183 0.88642 35.2018 0.893684 35.1844C0.942574 35.0721 1.03103 34.9816 1.14222 34.9303C1.25342 34.879 1.37958 34.8705 1.49669 34.9062C1.51464 34.912 1.53322 34.9156 1.55203 34.9171V34.9171C1.60568 34.9203 1.65897 34.9062 1.70398 34.8768C1.749 34.8474 1.78335 34.8043 1.80196 34.7538C1.82056 34.7033 1.82243 34.6482 1.80728 34.5966C1.79213 34.545 1.76077 34.4996 1.71784 34.4672C1.70261 34.4561 1.68612 34.4468 1.66872 34.4395V34.4395Z" fill="#4D8AF0"/>
<path id="Vector_22" opacity="0.5" d="M25.0231 7.67129C24.9109 7.62236 24.8205 7.53384 24.7693 7.42257C24.718 7.31129 24.7094 7.18504 24.7451 7.06785C24.7509 7.04988 24.7546 7.03129 24.756 7.01247V7.01247C24.7593 6.95877 24.7452 6.90545 24.7158 6.8604C24.6864 6.81536 24.6433 6.78098 24.5928 6.76236C24.5424 6.74374 24.4873 6.74187 24.4358 6.75704C24.3842 6.7722 24.3388 6.80358 24.3065 6.84653V6.84653C24.2954 6.86177 24.2861 6.87828 24.2788 6.8957C24.2299 7.00803 24.1415 7.09846 24.0303 7.14976C23.9191 7.20106 23.7929 7.20965 23.6758 7.17391C23.6578 7.16812 23.6393 7.16448 23.6205 7.16305V7.16305C23.5668 7.15978 23.5135 7.17389 23.4685 7.2033C23.4235 7.2327 23.3891 7.27584 23.3705 7.32631C23.3519 7.37678 23.3501 7.4319 23.3652 7.48351C23.3804 7.53513 23.4117 7.58049 23.4546 7.61287V7.61287C23.4699 7.62401 23.4864 7.63331 23.5038 7.64058C23.616 7.6895 23.7064 7.77803 23.7576 7.8893C23.8089 8.00057 23.8175 8.12682 23.7818 8.24402C23.776 8.26198 23.7724 8.28057 23.7709 8.29939V8.29939C23.7677 8.35309 23.7818 8.40641 23.8112 8.45146C23.8405 8.49651 23.8836 8.53089 23.9341 8.5495C23.9845 8.56812 24.0396 8.56999 24.0912 8.55483C24.1427 8.53967 24.1881 8.50828 24.2204 8.46533C24.2316 8.45009 24.2409 8.43359 24.2481 8.41617C24.297 8.30383 24.3855 8.21341 24.4967 8.1621C24.6078 8.1108 24.734 8.10221 24.8511 8.13796C24.8691 8.14374 24.8876 8.14739 24.9065 8.14881V8.14881C24.9601 8.15208 25.0134 8.13797 25.0584 8.10857C25.1034 8.07916 25.1378 8.03603 25.1564 7.98556C25.175 7.93509 25.1769 7.87996 25.1617 7.82835C25.1466 7.77674 25.1152 7.73138 25.0723 7.69899V7.69899C25.057 7.68786 25.0406 7.67856 25.0231 7.67129V7.67129Z" fill="#4D8AF0"/>
<path id="Vector_23" opacity="0.5" d="M53.5373 77.1057C53.4251 77.0567 53.3347 76.9682 53.2835 76.8569C53.2322 76.7457 53.2236 76.6194 53.2593 76.5022C53.2651 76.4843 53.2688 76.4657 53.2702 76.4469V76.4469C53.2734 76.3932 53.2593 76.3398 53.23 76.2948C53.2006 76.2497 53.1575 76.2154 53.107 76.1967C53.0566 76.1781 53.0015 76.1763 52.9499 76.1914C52.8984 76.2066 52.853 76.238 52.8207 76.2809C52.8095 76.2962 52.8003 76.3127 52.793 76.3301C52.7441 76.4424 52.6556 76.5328 52.5445 76.5841C52.4333 76.6354 52.3071 76.644 52.19 76.6083C52.172 76.6025 52.1535 76.5989 52.1346 76.5974V76.5974C52.081 76.5942 52.0277 76.6083 51.9827 76.6377C51.9377 76.6671 51.9033 76.7102 51.8847 76.7607C51.8661 76.8112 51.8643 76.8663 51.8794 76.9179C51.8946 76.9695 51.9259 77.0149 51.9688 77.0472C51.9841 77.0584 52.0006 77.0677 52.018 77.075C52.1302 77.1239 52.2206 77.2124 52.2718 77.3237C52.3231 77.4349 52.3317 77.5612 52.296 77.6784C52.2902 77.6964 52.2866 77.7149 52.2851 77.7338V77.7338C52.2819 77.7875 52.296 77.8408 52.3253 77.8858C52.3547 77.9309 52.3978 77.9653 52.4483 77.9839C52.4987 78.0025 52.5538 78.0044 52.6054 77.9892C52.6569 77.974 52.7023 77.9427 52.7346 77.8997V77.8997C52.7457 77.8845 52.755 77.868 52.7623 77.8505C52.8112 77.7382 52.8997 77.6478 53.0108 77.5965C53.122 77.5452 53.2482 77.5366 53.3653 77.5723C53.3833 77.5781 53.4018 77.5818 53.4207 77.5832V77.5832C53.4743 77.5865 53.5276 77.5723 53.5726 77.5429C53.6176 77.5135 53.652 77.4704 53.6706 77.4199C53.6892 77.3695 53.6911 77.3143 53.6759 77.2627C53.6608 77.2111 53.6294 77.1658 53.5865 77.1334V77.1334C53.5712 77.1222 53.5548 77.1129 53.5373 77.1057V77.1057Z" fill="#4D8AF0"/>
<path id="Vector_24" opacity="0.5" d="M103.112 61.1458C103.562 61.1458 103.926 60.7808 103.926 60.3305C103.926 59.8802 103.562 59.5152 103.112 59.5152C102.662 59.5152 102.297 59.8802 102.297 60.3305C102.297 60.7808 102.662 61.1458 103.112 61.1458Z" fill="#F55F44"/>
<path id="Vector_25" opacity="0.5" d="M85.1886 66.3092C85.6386 66.3092 86.0033 65.9442 86.0033 65.4939C86.0033 65.0437 85.6386 64.6786 85.1886 64.6786C84.7387 64.6786 84.374 65.0437 84.374 65.4939C84.374 65.9442 84.7387 66.3092 85.1886 66.3092Z" fill="#4D8AF0"/>
<path id="Vector_26" opacity="0.5" d="M14.0391 74.3261C14.489 74.3261 14.8537 73.9611 14.8537 73.5108C14.8537 73.0605 14.489 72.6955 14.0391 72.6955C13.5891 72.6955 13.2244 73.0605 13.2244 73.5108C13.2244 73.9611 13.5891 74.3261 14.0391 74.3261Z" fill="#47E6B1"/>
<path id="Vector_27" opacity="0.5" d="M55.8599 1.63055C56.3098 1.63055 56.6746 1.26554 56.6746 0.815277C56.6746 0.365012 56.3098 0 55.8599 0C55.4099 0 55.0452 0.365012 55.0452 0.815277C55.0452 1.26554 55.4099 1.63055 55.8599 1.63055Z" fill="#F55F44"/>
</g>
<g class="sparkles">
<path id="Vector_21" opacity="0.5" d="M1.66872 34.4395C1.55646 34.3906 1.4661 34.3021 1.41484 34.1908C1.36357 34.0795 1.35498 33.9533 1.39071 33.8361C1.39649 33.8181 1.40013 33.7995 1.40155 33.7807V33.7807C1.40482 33.727 1.39072 33.6737 1.36133 33.6287C1.33195 33.5836 1.28885 33.5492 1.23842 33.5306C1.18798 33.512 1.1329 33.5101 1.08132 33.5253C1.02974 33.5404 0.984418 33.5718 0.952057 33.6148V33.6148C0.940928 33.63 0.931635 33.6465 0.92437 33.6639C0.875481 33.7763 0.787021 33.8667 0.675829 33.918C0.564638 33.9693 0.438478 33.9779 0.321364 33.9422C0.30341 33.9364 0.284835 33.9327 0.266027 33.9313V33.9313C0.212371 33.928 0.159089 33.9421 0.114074 33.9715C0.0690598 34.0009 0.0347066 34.0441 0.0161022 34.0946C-0.00250231 34.145 -0.00436762 34.2001 0.0107816 34.2518C0.0259308 34.3034 0.0572884 34.3487 0.100212 34.3811V34.3811C0.115441 34.3923 0.13193 34.4016 0.149338 34.4088C0.261593 34.4577 0.351954 34.5463 0.403218 34.6575C0.454482 34.7688 0.463069 34.8951 0.427349 35.0123C0.421568 35.0302 0.417926 35.0488 0.416498 35.0676V35.0676C0.413232 35.1213 0.427336 35.1746 0.456719 35.2197C0.486102 35.2647 0.529203 35.2991 0.579637 35.3177C0.630071 35.3364 0.685157 35.3382 0.736734 35.3231C0.788311 35.3079 0.833636 35.2765 0.865998 35.2336V35.2336C0.877126 35.2183 0.88642 35.2018 0.893684 35.1844C0.942574 35.0721 1.03103 34.9816 1.14222 34.9303C1.25342 34.879 1.37958 34.8705 1.49669 34.9062C1.51464 34.912 1.53322 34.9156 1.55203 34.9171V34.9171C1.60568 34.9203 1.65897 34.9062 1.70398 34.8768C1.749 34.8474 1.78335 34.8043 1.80196 34.7538C1.82056 34.7033 1.82243 34.6482 1.80728 34.5966C1.79213 34.545 1.76077 34.4996 1.71784 34.4672C1.70261 34.4561 1.68612 34.4468 1.66872 34.4395V34.4395Z" fill="#4D8AF0"/>
<path id="Vector_22" opacity="0.5" d="M25.0231 7.67129C24.9109 7.62236 24.8205 7.53384 24.7693 7.42257C24.718 7.31129 24.7094 7.18504 24.7451 7.06785C24.7509 7.04988 24.7546 7.03129 24.756 7.01247V7.01247C24.7593 6.95877 24.7452 6.90545 24.7158 6.8604C24.6864 6.81536 24.6433 6.78098 24.5928 6.76236C24.5424 6.74374 24.4873 6.74187 24.4358 6.75704C24.3842 6.7722 24.3388 6.80358 24.3065 6.84653V6.84653C24.2954 6.86177 24.2861 6.87828 24.2788 6.8957C24.2299 7.00803 24.1415 7.09846 24.0303 7.14976C23.9191 7.20106 23.7929 7.20965 23.6758 7.17391C23.6578 7.16812 23.6393 7.16448 23.6205 7.16305V7.16305C23.5668 7.15978 23.5135 7.17389 23.4685 7.2033C23.4235 7.2327 23.3891 7.27584 23.3705 7.32631C23.3519 7.37678 23.3501 7.4319 23.3652 7.48351C23.3804 7.53513 23.4117 7.58049 23.4546 7.61287V7.61287C23.4699 7.62401 23.4864 7.63331 23.5038 7.64058C23.616 7.6895 23.7064 7.77803 23.7576 7.8893C23.8089 8.00057 23.8175 8.12682 23.7818 8.24402C23.776 8.26198 23.7724 8.28057 23.7709 8.29939V8.29939C23.7677 8.35309 23.7818 8.40641 23.8112 8.45146C23.8405 8.49651 23.8836 8.53089 23.9341 8.5495C23.9845 8.56812 24.0396 8.56999 24.0912 8.55483C24.1427 8.53967 24.1881 8.50828 24.2204 8.46533C24.2316 8.45009 24.2409 8.43359 24.2481 8.41617C24.297 8.30383 24.3855 8.21341 24.4967 8.1621C24.6078 8.1108 24.734 8.10221 24.8511 8.13796C24.8691 8.14374 24.8876 8.14739 24.9065 8.14881V8.14881C24.9601 8.15208 25.0134 8.13797 25.0584 8.10857C25.1034 8.07916 25.1378 8.03603 25.1564 7.98556C25.175 7.93509 25.1769 7.87996 25.1617 7.82835C25.1466 7.77674 25.1152 7.73138 25.0723 7.69899V7.69899C25.057 7.68786 25.0406 7.67856 25.0231 7.67129V7.67129Z" fill="#4D8AF0"/>
<path id="Vector_23" opacity="0.5" d="M53.5373 77.1057C53.4251 77.0567 53.3347 76.9682 53.2835 76.8569C53.2322 76.7457 53.2236 76.6194 53.2593 76.5022C53.2651 76.4843 53.2688 76.4657 53.2702 76.4469V76.4469C53.2734 76.3932 53.2593 76.3398 53.23 76.2948C53.2006 76.2497 53.1575 76.2154 53.107 76.1967C53.0566 76.1781 53.0015 76.1763 52.9499 76.1914C52.8984 76.2066 52.853 76.238 52.8207 76.2809C52.8095 76.2962 52.8003 76.3127 52.793 76.3301C52.7441 76.4424 52.6556 76.5328 52.5445 76.5841C52.4333 76.6354 52.3071 76.644 52.19 76.6083C52.172 76.6025 52.1535 76.5989 52.1346 76.5974V76.5974C52.081 76.5942 52.0277 76.6083 51.9827 76.6377C51.9377 76.6671 51.9033 76.7102 51.8847 76.7607C51.8661 76.8112 51.8643 76.8663 51.8794 76.9179C51.8946 76.9695 51.9259 77.0149 51.9688 77.0472C51.9841 77.0584 52.0006 77.0677 52.018 77.075C52.1302 77.1239 52.2206 77.2124 52.2718 77.3237C52.3231 77.4349 52.3317 77.5612 52.296 77.6784C52.2902 77.6964 52.2866 77.7149 52.2851 77.7338V77.7338C52.2819 77.7875 52.296 77.8408 52.3253 77.8858C52.3547 77.9309 52.3978 77.9653 52.4483 77.9839C52.4987 78.0025 52.5538 78.0044 52.6054 77.9892C52.6569 77.974 52.7023 77.9427 52.7346 77.8997V77.8997C52.7457 77.8845 52.755 77.868 52.7623 77.8505C52.8112 77.7382 52.8997 77.6478 53.0108 77.5965C53.122 77.5452 53.2482 77.5366 53.3653 77.5723C53.3833 77.5781 53.4018 77.5818 53.4207 77.5832V77.5832C53.4743 77.5865 53.5276 77.5723 53.5726 77.5429C53.6176 77.5135 53.652 77.4704 53.6706 77.4199C53.6892 77.3695 53.6911 77.3143 53.6759 77.2627C53.6608 77.2111 53.6294 77.1658 53.5865 77.1334V77.1334C53.5712 77.1222 53.5548 77.1129 53.5373 77.1057V77.1057Z" fill="#4D8AF0"/>
<path id="Vector_24" opacity="0.5" d="M103.112 61.1458C103.562 61.1458 103.926 60.7808 103.926 60.3305C103.926 59.8802 103.562 59.5152 103.112 59.5152C102.662 59.5152 102.297 59.8802 102.297 60.3305C102.297 60.7808 102.662 61.1458 103.112 61.1458Z" fill="#F55F44"/>
<path id="Vector_25" opacity="0.5" d="M85.1886 66.3092C85.6386 66.3092 86.0033 65.9442 86.0033 65.4939C86.0033 65.0437 85.6386 64.6786 85.1886 64.6786C84.7387 64.6786 84.374 65.0437 84.374 65.4939C84.374 65.9442 84.7387 66.3092 85.1886 66.3092Z" fill="#4D8AF0"/>
<path id="Vector_26" opacity="0.5" d="M14.0391 74.3261C14.489 74.3261 14.8537 73.9611 14.8537 73.5108C14.8537 73.0605 14.489 72.6955 14.0391 72.6955C13.5891 72.6955 13.2244 73.0605 13.2244 73.5108C13.2244 73.9611 13.5891 74.3261 14.0391 74.3261Z" fill="#47E6B1"/>
<path id="Vector_27" opacity="0.5" d="M55.8599 1.63055C56.3098 1.63055 56.6746 1.26554 56.6746 0.815277C56.6746 0.365012 56.3098 0 55.8599 0C55.4099 0 55.0452 0.365012 55.0452 0.815277C55.0452 1.26554 55.4099 1.63055 55.8599 1.63055Z" fill="#F55F44"/>
</g>
<g class="sparkles">
<path id="Vector_21" opacity="0.5" d="M1.66872 34.4395C1.55646 34.3906 1.4661 34.3021 1.41484 34.1908C1.36357 34.0795 1.35498 33.9533 1.39071 33.8361C1.39649 33.8181 1.40013 33.7995 1.40155 33.7807V33.7807C1.40482 33.727 1.39072 33.6737 1.36133 33.6287C1.33195 33.5836 1.28885 33.5492 1.23842 33.5306C1.18798 33.512 1.1329 33.5101 1.08132 33.5253C1.02974 33.5404 0.984418 33.5718 0.952057 33.6148V33.6148C0.940928 33.63 0.931635 33.6465 0.92437 33.6639C0.875481 33.7763 0.787021 33.8667 0.675829 33.918C0.564638 33.9693 0.438478 33.9779 0.321364 33.9422C0.30341 33.9364 0.284835 33.9327 0.266027 33.9313V33.9313C0.212371 33.928 0.159089 33.9421 0.114074 33.9715C0.0690598 34.0009 0.0347066 34.0441 0.0161022 34.0946C-0.00250231 34.145 -0.00436762 34.2001 0.0107816 34.2518C0.0259308 34.3034 0.0572884 34.3487 0.100212 34.3811V34.3811C0.115441 34.3923 0.13193 34.4016 0.149338 34.4088C0.261593 34.4577 0.351954 34.5463 0.403218 34.6575C0.454482 34.7688 0.463069 34.8951 0.427349 35.0123C0.421568 35.0302 0.417926 35.0488 0.416498 35.0676V35.0676C0.413232 35.1213 0.427336 35.1746 0.456719 35.2197C0.486102 35.2647 0.529203 35.2991 0.579637 35.3177C0.630071 35.3364 0.685157 35.3382 0.736734 35.3231C0.788311 35.3079 0.833636 35.2765 0.865998 35.2336V35.2336C0.877126 35.2183 0.88642 35.2018 0.893684 35.1844C0.942574 35.0721 1.03103 34.9816 1.14222 34.9303C1.25342 34.879 1.37958 34.8705 1.49669 34.9062C1.51464 34.912 1.53322 34.9156 1.55203 34.9171V34.9171C1.60568 34.9203 1.65897 34.9062 1.70398 34.8768C1.749 34.8474 1.78335 34.8043 1.80196 34.7538C1.82056 34.7033 1.82243 34.6482 1.80728 34.5966C1.79213 34.545 1.76077 34.4996 1.71784 34.4672C1.70261 34.4561 1.68612 34.4468 1.66872 34.4395V34.4395Z" fill="#4D8AF0"/>
<path id="Vector_22" opacity="0.5" d="M25.0231 7.67129C24.9109 7.62236 24.8205 7.53384 24.7693 7.42257C24.718 7.31129 24.7094 7.18504 24.7451 7.06785C24.7509 7.04988 24.7546 7.03129 24.756 7.01247V7.01247C24.7593 6.95877 24.7452 6.90545 24.7158 6.8604C24.6864 6.81536 24.6433 6.78098 24.5928 6.76236C24.5424 6.74374 24.4873 6.74187 24.4358 6.75704C24.3842 6.7722 24.3388 6.80358 24.3065 6.84653V6.84653C24.2954 6.86177 24.2861 6.87828 24.2788 6.8957C24.2299 7.00803 24.1415 7.09846 24.0303 7.14976C23.9191 7.20106 23.7929 7.20965 23.6758 7.17391C23.6578 7.16812 23.6393 7.16448 23.6205 7.16305V7.16305C23.5668 7.15978 23.5135 7.17389 23.4685 7.2033C23.4235 7.2327 23.3891 7.27584 23.3705 7.32631C23.3519 7.37678 23.3501 7.4319 23.3652 7.48351C23.3804 7.53513 23.4117 7.58049 23.4546 7.61287V7.61287C23.4699 7.62401 23.4864 7.63331 23.5038 7.64058C23.616 7.6895 23.7064 7.77803 23.7576 7.8893C23.8089 8.00057 23.8175 8.12682 23.7818 8.24402C23.776 8.26198 23.7724 8.28057 23.7709 8.29939V8.29939C23.7677 8.35309 23.7818 8.40641 23.8112 8.45146C23.8405 8.49651 23.8836 8.53089 23.9341 8.5495C23.9845 8.56812 24.0396 8.56999 24.0912 8.55483C24.1427 8.53967 24.1881 8.50828 24.2204 8.46533C24.2316 8.45009 24.2409 8.43359 24.2481 8.41617C24.297 8.30383 24.3855 8.21341 24.4967 8.1621C24.6078 8.1108 24.734 8.10221 24.8511 8.13796C24.8691 8.14374 24.8876 8.14739 24.9065 8.14881V8.14881C24.9601 8.15208 25.0134 8.13797 25.0584 8.10857C25.1034 8.07916 25.1378 8.03603 25.1564 7.98556C25.175 7.93509 25.1769 7.87996 25.1617 7.82835C25.1466 7.77674 25.1152 7.73138 25.0723 7.69899V7.69899C25.057 7.68786 25.0406 7.67856 25.0231 7.67129V7.67129Z" fill="#4D8AF0"/>
<path id="Vector_23" opacity="0.5" d="M53.5373 77.1057C53.4251 77.0567 53.3347 76.9682 53.2835 76.8569C53.2322 76.7457 53.2236 76.6194 53.2593 76.5022C53.2651 76.4843 53.2688 76.4657 53.2702 76.4469V76.4469C53.2734 76.3932 53.2593 76.3398 53.23 76.2948C53.2006 76.2497 53.1575 76.2154 53.107 76.1967C53.0566 76.1781 53.0015 76.1763 52.9499 76.1914C52.8984 76.2066 52.853 76.238 52.8207 76.2809C52.8095 76.2962 52.8003 76.3127 52.793 76.3301C52.7441 76.4424 52.6556 76.5328 52.5445 76.5841C52.4333 76.6354 52.3071 76.644 52.19 76.6083C52.172 76.6025 52.1535 76.5989 52.1346 76.5974V76.5974C52.081 76.5942 52.0277 76.6083 51.9827 76.6377C51.9377 76.6671 51.9033 76.7102 51.8847 76.7607C51.8661 76.8112 51.8643 76.8663 51.8794 76.9179C51.8946 76.9695 51.9259 77.0149 51.9688 77.0472C51.9841 77.0584 52.0006 77.0677 52.018 77.075C52.1302 77.1239 52.2206 77.2124 52.2718 77.3237C52.3231 77.4349 52.3317 77.5612 52.296 77.6784C52.2902 77.6964 52.2866 77.7149 52.2851 77.7338V77.7338C52.2819 77.7875 52.296 77.8408 52.3253 77.8858C52.3547 77.9309 52.3978 77.9653 52.4483 77.9839C52.4987 78.0025 52.5538 78.0044 52.6054 77.9892C52.6569 77.974 52.7023 77.9427 52.7346 77.8997V77.8997C52.7457 77.8845 52.755 77.868 52.7623 77.8505C52.8112 77.7382 52.8997 77.6478 53.0108 77.5965C53.122 77.5452 53.2482 77.5366 53.3653 77.5723C53.3833 77.5781 53.4018 77.5818 53.4207 77.5832V77.5832C53.4743 77.5865 53.5276 77.5723 53.5726 77.5429C53.6176 77.5135 53.652 77.4704 53.6706 77.4199C53.6892 77.3695 53.6911 77.3143 53.6759 77.2627C53.6608 77.2111 53.6294 77.1658 53.5865 77.1334V77.1334C53.5712 77.1222 53.5548 77.1129 53.5373 77.1057V77.1057Z" fill="#4D8AF0"/>
<path id="Vector_24" opacity="0.5" d="M103.112 61.1458C103.562 61.1458 103.926 60.7808 103.926 60.3305C103.926 59.8802 103.562 59.5152 103.112 59.5152C102.662 59.5152 102.297 59.8802 102.297 60.3305C102.297 60.7808 102.662 61.1458 103.112 61.1458Z" fill="#F55F44"/>
<path id="Vector_25" opacity="0.5" d="M85.1886 66.3092C85.6386 66.3092 86.0033 65.9442 86.0033 65.4939C86.0033 65.0437 85.6386 64.6786 85.1886 64.6786C84.7387 64.6786 84.374 65.0437 84.374 65.4939C84.374 65.9442 84.7387 66.3092 85.1886 66.3092Z" fill="#4D8AF0"/>
<path id="Vector_26" opacity="0.5" d="M14.0391 74.3261C14.489 74.3261 14.8537 73.9611 14.8537 73.5108C14.8537 73.0605 14.489 72.6955 14.0391 72.6955C13.5891 72.6955 13.2244 73.0605 13.2244 73.5108C13.2244 73.9611 13.5891 74.3261 14.0391 74.3261Z" fill="#47E6B1"/>
<path id="Vector_27" opacity="0.5" d="M55.8599 1.63055C56.3098 1.63055 56.6746 1.26554 56.6746 0.815277C56.6746 0.365012 56.3098 0 55.8599 0C55.4099 0 55.0452 0.365012 55.0452 0.815277C55.0452 1.26554 55.4099 1.63055 55.8599 1.63055Z" fill="#F55F44"/>
</g>
<g class="sparkles">
<path id="Vector_21" opacity="0.5" d="M1.66872 34.4395C1.55646 34.3906 1.4661 34.3021 1.41484 34.1908C1.36357 34.0795 1.35498 33.9533 1.39071 33.8361C1.39649 33.8181 1.40013 33.7995 1.40155 33.7807V33.7807C1.40482 33.727 1.39072 33.6737 1.36133 33.6287C1.33195 33.5836 1.28885 33.5492 1.23842 33.5306C1.18798 33.512 1.1329 33.5101 1.08132 33.5253C1.02974 33.5404 0.984418 33.5718 0.952057 33.6148V33.6148C0.940928 33.63 0.931635 33.6465 0.92437 33.6639C0.875481 33.7763 0.787021 33.8667 0.675829 33.918C0.564638 33.9693 0.438478 33.9779 0.321364 33.9422C0.30341 33.9364 0.284835 33.9327 0.266027 33.9313V33.9313C0.212371 33.928 0.159089 33.9421 0.114074 33.9715C0.0690598 34.0009 0.0347066 34.0441 0.0161022 34.0946C-0.00250231 34.145 -0.00436762 34.2001 0.0107816 34.2518C0.0259308 34.3034 0.0572884 34.3487 0.100212 34.3811V34.3811C0.115441 34.3923 0.13193 34.4016 0.149338 34.4088C0.261593 34.4577 0.351954 34.5463 0.403218 34.6575C0.454482 34.7688 0.463069 34.8951 0.427349 35.0123C0.421568 35.0302 0.417926 35.0488 0.416498 35.0676V35.0676C0.413232 35.1213 0.427336 35.1746 0.456719 35.2197C0.486102 35.2647 0.529203 35.2991 0.579637 35.3177C0.630071 35.3364 0.685157 35.3382 0.736734 35.3231C0.788311 35.3079 0.833636 35.2765 0.865998 35.2336V35.2336C0.877126 35.2183 0.88642 35.2018 0.893684 35.1844C0.942574 35.0721 1.03103 34.9816 1.14222 34.9303C1.25342 34.879 1.37958 34.8705 1.49669 34.9062C1.51464 34.912 1.53322 34.9156 1.55203 34.9171V34.9171C1.60568 34.9203 1.65897 34.9062 1.70398 34.8768C1.749 34.8474 1.78335 34.8043 1.80196 34.7538C1.82056 34.7033 1.82243 34.6482 1.80728 34.5966C1.79213 34.545 1.76077 34.4996 1.71784 34.4672C1.70261 34.4561 1.68612 34.4468 1.66872 34.4395V34.4395Z" fill="#4D8AF0"/>
<path id="Vector_22" opacity="0.5" d="M25.0231 7.67129C24.9109 7.62236 24.8205 7.53384 24.7693 7.42257C24.718 7.31129 24.7094 7.18504 24.7451 7.06785C24.7509 7.04988 24.7546 7.03129 24.756 7.01247V7.01247C24.7593 6.95877 24.7452 6.90545 24.7158 6.8604C24.6864 6.81536 24.6433 6.78098 24.5928 6.76236C24.5424 6.74374 24.4873 6.74187 24.4358 6.75704C24.3842 6.7722 24.3388 6.80358 24.3065 6.84653V6.84653C24.2954 6.86177 24.2861 6.87828 24.2788 6.8957C24.2299 7.00803 24.1415 7.09846 24.0303 7.14976C23.9191 7.20106 23.7929 7.20965 23.6758 7.17391C23.6578 7.16812 23.6393 7.16448 23.6205 7.16305V7.16305C23.5668 7.15978 23.5135 7.17389 23.4685 7.2033C23.4235 7.2327 23.3891 7.27584 23.3705 7.32631C23.3519 7.37678 23.3501 7.4319 23.3652 7.48351C23.3804 7.53513 23.4117 7.58049 23.4546 7.61287V7.61287C23.4699 7.62401 23.4864 7.63331 23.5038 7.64058C23.616 7.6895 23.7064 7.77803 23.7576 7.8893C23.8089 8.00057 23.8175 8.12682 23.7818 8.24402C23.776 8.26198 23.7724 8.28057 23.7709 8.29939V8.29939C23.7677 8.35309 23.7818 8.40641 23.8112 8.45146C23.8405 8.49651 23.8836 8.53089 23.9341 8.5495C23.9845 8.56812 24.0396 8.56999 24.0912 8.55483C24.1427 8.53967 24.1881 8.50828 24.2204 8.46533C24.2316 8.45009 24.2409 8.43359 24.2481 8.41617C24.297 8.30383 24.3855 8.21341 24.4967 8.1621C24.6078 8.1108 24.734 8.10221 24.8511 8.13796C24.8691 8.14374 24.8876 8.14739 24.9065 8.14881V8.14881C24.9601 8.15208 25.0134 8.13797 25.0584 8.10857C25.1034 8.07916 25.1378 8.03603 25.1564 7.98556C25.175 7.93509 25.1769 7.87996 25.1617 7.82835C25.1466 7.77674 25.1152 7.73138 25.0723 7.69899V7.69899C25.057 7.68786 25.0406 7.67856 25.0231 7.67129V7.67129Z" fill="#4D8AF0"/>
<path id="Vector_23" opacity="0.5" d="M53.5373 77.1057C53.4251 77.0567 53.3347 76.9682 53.2835 76.8569C53.2322 76.7457 53.2236 76.6194 53.2593 76.5022C53.2651 76.4843 53.2688 76.4657 53.2702 76.4469V76.4469C53.2734 76.3932 53.2593 76.3398 53.23 76.2948C53.2006 76.2497 53.1575 76.2154 53.107 76.1967C53.0566 76.1781 53.0015 76.1763 52.9499 76.1914C52.8984 76.2066 52.853 76.238 52.8207 76.2809C52.8095 76.2962 52.8003 76.3127 52.793 76.3301C52.7441 76.4424 52.6556 76.5328 52.5445 76.5841C52.4333 76.6354 52.3071 76.644 52.19 76.6083C52.172 76.6025 52.1535 76.5989 52.1346 76.5974V76.5974C52.081 76.5942 52.0277 76.6083 51.9827 76.6377C51.9377 76.6671 51.9033 76.7102 51.8847 76.7607C51.8661 76.8112 51.8643 76.8663 51.8794 76.9179C51.8946 76.9695 51.9259 77.0149 51.9688 77.0472C51.9841 77.0584 52.0006 77.0677 52.018 77.075C52.1302 77.1239 52.2206 77.2124 52.2718 77.3237C52.3231 77.4349 52.3317 77.5612 52.296 77.6784C52.2902 77.6964 52.2866 77.7149 52.2851 77.7338V77.7338C52.2819 77.7875 52.296 77.8408 52.3253 77.8858C52.3547 77.9309 52.3978 77.9653 52.4483 77.9839C52.4987 78.0025 52.5538 78.0044 52.6054 77.9892C52.6569 77.974 52.7023 77.9427 52.7346 77.8997V77.8997C52.7457 77.8845 52.755 77.868 52.7623 77.8505C52.8112 77.7382 52.8997 77.6478 53.0108 77.5965C53.122 77.5452 53.2482 77.5366 53.3653 77.5723C53.3833 77.5781 53.4018 77.5818 53.4207 77.5832V77.5832C53.4743 77.5865 53.5276 77.5723 53.5726 77.5429C53.6176 77.5135 53.652 77.4704 53.6706 77.4199C53.6892 77.3695 53.6911 77.3143 53.6759 77.2627C53.6608 77.2111 53.6294 77.1658 53.5865 77.1334V77.1334C53.5712 77.1222 53.5548 77.1129 53.5373 77.1057V77.1057Z" fill="#4D8AF0"/>
<path id="Vector_24" opacity="0.5" d="M103.112 61.1458C103.562 61.1458 103.926 60.7808 103.926 60.3305C103.926 59.8802 103.562 59.5152 103.112 59.5152C102.662 59.5152 102.297 59.8802 102.297 60.3305C102.297 60.7808 102.662 61.1458 103.112 61.1458Z" fill="#F55F44"/>
<path id="Vector_25" opacity="0.5" d="M85.1886 66.3092C85.6386 66.3092 86.0033 65.9442 86.0033 65.4939C86.0033 65.0437 85.6386 64.6786 85.1886 64.6786C84.7387 64.6786 84.374 65.0437 84.374 65.4939C84.374 65.9442 84.7387 66.3092 85.1886 66.3092Z" fill="#4D8AF0"/>
<path id="Vector_26" opacity="0.5" d="M14.0391 74.3261C14.489 74.3261 14.8537 73.9611 14.8537 73.5108C14.8537 73.0605 14.489 72.6955 14.0391 72.6955C13.5891 72.6955 13.2244 73.0605 13.2244 73.5108C13.2244 73.9611 13.5891 74.3261 14.0391 74.3261Z" fill="#47E6B1"/>
<path id="Vector_27" opacity="0.5" d="M55.8599 1.63055C56.3098 1.63055 56.6746 1.26554 56.6746 0.815277C56.6746 0.365012 56.3098 0 55.8599 0C55.4099 0 55.0452 0.365012 55.0452 0.815277C55.0452 1.26554 55.4099 1.63055 55.8599 1.63055Z" fill="#F55F44"/>
</g>
<g class="sparkles">
<path id="Vector_21" opacity="0.5" d="M1.66872 34.4395C1.55646 34.3906 1.4661 34.3021 1.41484 34.1908C1.36357 34.0795 1.35498 33.9533 1.39071 33.8361C1.39649 33.8181 1.40013 33.7995 1.40155 33.7807V33.7807C1.40482 33.727 1.39072 33.6737 1.36133 33.6287C1.33195 33.5836 1.28885 33.5492 1.23842 33.5306C1.18798 33.512 1.1329 33.5101 1.08132 33.5253C1.02974 33.5404 0.984418 33.5718 0.952057 33.6148V33.6148C0.940928 33.63 0.931635 33.6465 0.92437 33.6639C0.875481 33.7763 0.787021 33.8667 0.675829 33.918C0.564638 33.9693 0.438478 33.9779 0.321364 33.9422C0.30341 33.9364 0.284835 33.9327 0.266027 33.9313V33.9313C0.212371 33.928 0.159089 33.9421 0.114074 33.9715C0.0690598 34.0009 0.0347066 34.0441 0.0161022 34.0946C-0.00250231 34.145 -0.00436762 34.2001 0.0107816 34.2518C0.0259308 34.3034 0.0572884 34.3487 0.100212 34.3811V34.3811C0.115441 34.3923 0.13193 34.4016 0.149338 34.4088C0.261593 34.4577 0.351954 34.5463 0.403218 34.6575C0.454482 34.7688 0.463069 34.8951 0.427349 35.0123C0.421568 35.0302 0.417926 35.0488 0.416498 35.0676V35.0676C0.413232 35.1213 0.427336 35.1746 0.456719 35.2197C0.486102 35.2647 0.529203 35.2991 0.579637 35.3177C0.630071 35.3364 0.685157 35.3382 0.736734 35.3231C0.788311 35.3079 0.833636 35.2765 0.865998 35.2336V35.2336C0.877126 35.2183 0.88642 35.2018 0.893684 35.1844C0.942574 35.0721 1.03103 34.9816 1.14222 34.9303C1.25342 34.879 1.37958 34.8705 1.49669 34.9062C1.51464 34.912 1.53322 34.9156 1.55203 34.9171V34.9171C1.60568 34.9203 1.65897 34.9062 1.70398 34.8768C1.749 34.8474 1.78335 34.8043 1.80196 34.7538C1.82056 34.7033 1.82243 34.6482 1.80728 34.5966C1.79213 34.545 1.76077 34.4996 1.71784 34.4672C1.70261 34.4561 1.68612 34.4468 1.66872 34.4395V34.4395Z" fill="#4D8AF0"/>
<path id="Vector_22" opacity="0.5" d="M25.0231 7.67129C24.9109 7.62236 24.8205 7.53384 24.7693 7.42257C24.718 7.31129 24.7094 7.18504 24.7451 7.06785C24.7509 7.04988 24.7546 7.03129 24.756 7.01247V7.01247C24.7593 6.95877 24.7452 6.90545 24.7158 6.8604C24.6864 6.81536 24.6433 6.78098 24.5928 6.76236C24.5424 6.74374 24.4873 6.74187 24.4358 6.75704C24.3842 6.7722 24.3388 6.80358 24.3065 6.84653V6.84653C24.2954 6.86177 24.2861 6.87828 24.2788 6.8957C24.2299 7.00803 24.1415 7.09846 24.0303 7.14976C23.9191 7.20106 23.7929 7.20965 23.6758 7.17391C23.6578 7.16812 23.6393 7.16448 23.6205 7.16305V7.16305C23.5668 7.15978 23.5135 7.17389 23.4685 7.2033C23.4235 7.2327 23.3891 7.27584 23.3705 7.32631C23.3519 7.37678 23.3501 7.4319 23.3652 7.48351C23.3804 7.53513 23.4117 7.58049 23.4546 7.61287V7.61287C23.4699 7.62401 23.4864 7.63331 23.5038 7.64058C23.616 7.6895 23.7064 7.77803 23.7576 7.8893C23.8089 8.00057 23.8175 8.12682 23.7818 8.24402C23.776 8.26198 23.7724 8.28057 23.7709 8.29939V8.29939C23.7677 8.35309 23.7818 8.40641 23.8112 8.45146C23.8405 8.49651 23.8836 8.53089 23.9341 8.5495C23.9845 8.56812 24.0396 8.56999 24.0912 8.55483C24.1427 8.53967 24.1881 8.50828 24.2204 8.46533C24.2316 8.45009 24.2409 8.43359 24.2481 8.41617C24.297 8.30383 24.3855 8.21341 24.4967 8.1621C24.6078 8.1108 24.734 8.10221 24.8511 8.13796C24.8691 8.14374 24.8876 8.14739 24.9065 8.14881V8.14881C24.9601 8.15208 25.0134 8.13797 25.0584 8.10857C25.1034 8.07916 25.1378 8.03603 25.1564 7.98556C25.175 7.93509 25.1769 7.87996 25.1617 7.82835C25.1466 7.77674 25.1152 7.73138 25.0723 7.69899V7.69899C25.057 7.68786 25.0406 7.67856 25.0231 7.67129V7.67129Z" fill="#4D8AF0"/>
<path id="Vector_23" opacity="0.5" d="M53.5373 77.1057C53.4251 77.0567 53.3347 76.9682 53.2835 76.8569C53.2322 76.7457 53.2236 76.6194 53.2593 76.5022C53.2651 76.4843 53.2688 76.4657 53.2702 76.4469V76.4469C53.2734 76.3932 53.2593 76.3398 53.23 76.2948C53.2006 76.2497 53.1575 76.2154 53.107 76.1967C53.0566 76.1781 53.0015 76.1763 52.9499 76.1914C52.8984 76.2066 52.853 76.238 52.8207 76.2809C52.8095 76.2962 52.8003 76.3127 52.793 76.3301C52.7441 76.4424 52.6556 76.5328 52.5445 76.5841C52.4333 76.6354 52.3071 76.644 52.19 76.6083C52.172 76.6025 52.1535 76.5989 52.1346 76.5974V76.5974C52.081 76.5942 52.0277 76.6083 51.9827 76.6377C51.9377 76.6671 51.9033 76.7102 51.8847 76.7607C51.8661 76.8112 51.8643 76.8663 51.8794 76.9179C51.8946 76.9695 51.9259 77.0149 51.9688 77.0472C51.9841 77.0584 52.0006 77.0677 52.018 77.075C52.1302 77.1239 52.2206 77.2124 52.2718 77.3237C52.3231 77.4349 52.3317 77.5612 52.296 77.6784C52.2902 77.6964 52.2866 77.7149 52.2851 77.7338V77.7338C52.2819 77.7875 52.296 77.8408 52.3253 77.8858C52.3547 77.9309 52.3978 77.9653 52.4483 77.9839C52.4987 78.0025 52.5538 78.0044 52.6054 77.9892C52.6569 77.974 52.7023 77.9427 52.7346 77.8997V77.8997C52.7457 77.8845 52.755 77.868 52.7623 77.8505C52.8112 77.7382 52.8997 77.6478 53.0108 77.5965C53.122 77.5452 53.2482 77.5366 53.3653 77.5723C53.3833 77.5781 53.4018 77.5818 53.4207 77.5832V77.5832C53.4743 77.5865 53.5276 77.5723 53.5726 77.5429C53.6176 77.5135 53.652 77.4704 53.6706 77.4199C53.6892 77.3695 53.6911 77.3143 53.6759 77.2627C53.6608 77.2111 53.6294 77.1658 53.5865 77.1334V77.1334C53.5712 77.1222 53.5548 77.1129 53.5373 77.1057V77.1057Z" fill="#4D8AF0"/>
<path id="Vector_24" opacity="0.5" d="M103.112 61.1458C103.562 61.1458 103.926 60.7808 103.926 60.3305C103.926 59.8802 103.562 59.5152 103.112 59.5152C102.662 59.5152 102.297 59.8802 102.297 60.3305C102.297 60.7808 102.662 61.1458 103.112 61.1458Z" fill="#F55F44"/>
<path id="Vector_25" opacity="0.5" d="M85.1886 66.3092C85.6386 66.3092 86.0033 65.9442 86.0033 65.4939C86.0033 65.0437 85.6386 64.6786 85.1886 64.6786C84.7387 64.6786 84.374 65.0437 84.374 65.4939C84.374 65.9442 84.7387 66.3092 85.1886 66.3092Z" fill="#4D8AF0"/>
<path id="Vector_26" opacity="0.5" d="M14.0391 74.3261C14.489 74.3261 14.8537 73.9611 14.8537 73.5108C14.8537 73.0605 14.489 72.6955 14.0391 72.6955C13.5891 72.6955 13.2244 73.0605 13.2244 73.5108C13.2244 73.9611 13.5891 74.3261 14.0391 74.3261Z" fill="#47E6B1"/>
<path id="Vector_27" opacity="0.5" d="M55.8599 1.63055C56.3098 1.63055 56.6746 1.26554 56.6746 0.815277C56.6746 0.365012 56.3098 0 55.8599 0C55.4099 0 55.0452 0.365012 55.0452 0.815277C55.0452 1.26554 55.4099 1.63055 55.8599 1.63055Z" fill="#F55F44"/>
</g>
<g class="sparkles">
<path id="Vector_21" opacity="0.5" d="M1.66872 34.4395C1.55646 34.3906 1.4661 34.3021 1.41484 34.1908C1.36357 34.0795 1.35498 33.9533 1.39071 33.8361C1.39649 33.8181 1.40013 33.7995 1.40155 33.7807V33.7807C1.40482 33.727 1.39072 33.6737 1.36133 33.6287C1.33195 33.5836 1.28885 33.5492 1.23842 33.5306C1.18798 33.512 1.1329 33.5101 1.08132 33.5253C1.02974 33.5404 0.984418 33.5718 0.952057 33.6148V33.6148C0.940928 33.63 0.931635 33.6465 0.92437 33.6639C0.875481 33.7763 0.787021 33.8667 0.675829 33.918C0.564638 33.9693 0.438478 33.9779 0.321364 33.9422C0.30341 33.9364 0.284835 33.9327 0.266027 33.9313V33.9313C0.212371 33.928 0.159089 33.9421 0.114074 33.9715C0.0690598 34.0009 0.0347066 34.0441 0.0161022 34.0946C-0.00250231 34.145 -0.00436762 34.2001 0.0107816 34.2518C0.0259308 34.3034 0.0572884 34.3487 0.100212 34.3811V34.3811C0.115441 34.3923 0.13193 34.4016 0.149338 34.4088C0.261593 34.4577 0.351954 34.5463 0.403218 34.6575C0.454482 34.7688 0.463069 34.8951 0.427349 35.0123C0.421568 35.0302 0.417926 35.0488 0.416498 35.0676V35.0676C0.413232 35.1213 0.427336 35.1746 0.456719 35.2197C0.486102 35.2647 0.529203 35.2991 0.579637 35.3177C0.630071 35.3364 0.685157 35.3382 0.736734 35.3231C0.788311 35.3079 0.833636 35.2765 0.865998 35.2336V35.2336C0.877126 35.2183 0.88642 35.2018 0.893684 35.1844C0.942574 35.0721 1.03103 34.9816 1.14222 34.9303C1.25342 34.879 1.37958 34.8705 1.49669 34.9062C1.51464 34.912 1.53322 34.9156 1.55203 34.9171V34.9171C1.60568 34.9203 1.65897 34.9062 1.70398 34.8768C1.749 34.8474 1.78335 34.8043 1.80196 34.7538C1.82056 34.7033 1.82243 34.6482 1.80728 34.5966C1.79213 34.545 1.76077 34.4996 1.71784 34.4672C1.70261 34.4561 1.68612 34.4468 1.66872 34.4395V34.4395Z" fill="#4D8AF0"/>
<path id="Vector_22" opacity="0.5" d="M25.0231 7.67129C24.9109 7.62236 24.8205 7.53384 24.7693 7.42257C24.718 7.31129 24.7094 7.18504 24.7451 7.06785C24.7509 7.04988 24.7546 7.03129 24.756 7.01247V7.01247C24.7593 6.95877 24.7452 6.90545 24.7158 6.8604C24.6864 6.81536 24.6433 6.78098 24.5928 6.76236C24.5424 6.74374 24.4873 6.74187 24.4358 6.75704C24.3842 6.7722 24.3388 6.80358 24.3065 6.84653V6.84653C24.2954 6.86177 24.2861 6.87828 24.2788 6.8957C24.2299 7.00803 24.1415 7.09846 24.0303 7.14976C23.9191 7.20106 23.7929 7.20965 23.6758 7.17391C23.6578 7.16812 23.6393 7.16448 23.6205 7.16305V7.16305C23.5668 7.15978 23.5135 7.17389 23.4685 7.2033C23.4235 7.2327 23.3891 7.27584 23.3705 7.32631C23.3519 7.37678 23.3501 7.4319 23.3652 7.48351C23.3804 7.53513 23.4117 7.58049 23.4546 7.61287V7.61287C23.4699 7.62401 23.4864 7.63331 23.5038 7.64058C23.616 7.6895 23.7064 7.77803 23.7576 7.8893C23.8089 8.00057 23.8175 8.12682 23.7818 8.24402C23.776 8.26198 23.7724 8.28057 23.7709 8.29939V8.29939C23.7677 8.35309 23.7818 8.40641 23.8112 8.45146C23.8405 8.49651 23.8836 8.53089 23.9341 8.5495C23.9845 8.56812 24.0396 8.56999 24.0912 8.55483C24.1427 8.53967 24.1881 8.50828 24.2204 8.46533C24.2316 8.45009 24.2409 8.43359 24.2481 8.41617C24.297 8.30383 24.3855 8.21341 24.4967 8.1621C24.6078 8.1108 24.734 8.10221 24.8511 8.13796C24.8691 8.14374 24.8876 8.14739 24.9065 8.14881V8.14881C24.9601 8.15208 25.0134 8.13797 25.0584 8.10857C25.1034 8.07916 25.1378 8.03603 25.1564 7.98556C25.175 7.93509 25.1769 7.87996 25.1617 7.82835C25.1466 7.77674 25.1152 7.73138 25.0723 7.69899V7.69899C25.057 7.68786 25.0406 7.67856 25.0231 7.67129V7.67129Z" fill="#4D8AF0"/>
<path id="Vector_23" opacity="0.5" d="M53.5373 77.1057C53.4251 77.0567 53.3347 76.9682 53.2835 76.8569C53.2322 76.7457 53.2236 76.6194 53.2593 76.5022C53.2651 76.4843 53.2688 76.4657 53.2702 76.4469V76.4469C53.2734 76.3932 53.2593 76.3398 53.23 76.2948C53.2006 76.2497 53.1575 76.2154 53.107 76.1967C53.0566 76.1781 53.0015 76.1763 52.9499 76.1914C52.8984 76.2066 52.853 76.238 52.8207 76.2809C52.8095 76.2962 52.8003 76.3127 52.793 76.3301C52.7441 76.4424 52.6556 76.5328 52.5445 76.5841C52.4333 76.6354 52.3071 76.644 52.19 76.6083C52.172 76.6025 52.1535 76.5989 52.1346 76.5974V76.5974C52.081 76.5942 52.0277 76.6083 51.9827 76.6377C51.9377 76.6671 51.9033 76.7102 51.8847 76.7607C51.8661 76.8112 51.8643 76.8663 51.8794 76.9179C51.8946 76.9695 51.9259 77.0149 51.9688 77.0472C51.9841 77.0584 52.0006 77.0677 52.018 77.075C52.1302 77.1239 52.2206 77.2124 52.2718 77.3237C52.3231 77.4349 52.3317 77.5612 52.296 77.6784C52.2902 77.6964 52.2866 77.7149 52.2851 77.7338V77.7338C52.2819 77.7875 52.296 77.8408 52.3253 77.8858C52.3547 77.9309 52.3978 77.9653 52.4483 77.9839C52.4987 78.0025 52.5538 78.0044 52.6054 77.9892C52.6569 77.974 52.7023 77.9427 52.7346 77.8997V77.8997C52.7457 77.8845 52.755 77.868 52.7623 77.8505C52.8112 77.7382 52.8997 77.6478 53.0108 77.5965C53.122 77.5452 53.2482 77.5366 53.3653 77.5723C53.3833 77.5781 53.4018 77.5818 53.4207 77.5832V77.5832C53.4743 77.5865 53.5276 77.5723 53.5726 77.5429C53.6176 77.5135 53.652 77.4704 53.6706 77.4199C53.6892 77.3695 53.6911 77.3143 53.6759 77.2627C53.6608 77.2111 53.6294 77.1658 53.5865 77.1334V77.1334C53.5712 77.1222 53.5548 77.1129 53.5373 77.1057V77.1057Z" fill="#4D8AF0"/>
<path id="Vector_24" opacity="0.5" d="M103.112 61.1458C103.562 61.1458 103.926 60.7808 103.926 60.3305C103.926 59.8802 103.562 59.5152 103.112 59.5152C102.662 59.5152 102.297 59.8802 102.297 60.3305C102.297 60.7808 102.662 61.1458 103.112 61.1458Z" fill="#F55F44"/>
<path id="Vector_25" opacity="0.5" d="M85.1886 66.3092C85.6386 66.3092 86.0033 65.9442 86.0033 65.4939C86.0033 65.0437 85.6386 64.6786 85.1886 64.6786C84.7387 64.6786 84.374 65.0437 84.374 65.4939C84.374 65.9442 84.7387 66.3092 85.1886 66.3092Z" fill="#4D8AF0"/>
<path id="Vector_26" opacity="0.5" d="M14.0391 74.3261C14.489 74.3261 14.8537 73.9611 14.8537 73.5108C14.8537 73.0605 14.489 72.6955 14.0391 72.6955C13.5891 72.6955 13.2244 73.0605 13.2244 73.5108C13.2244 73.9611 13.5891 74.3261 14.0391 74.3261Z" fill="#47E6B1"/>
<path id="Vector_27" opacity="0.5" d="M55.8599 1.63055C56.3098 1.63055 56.6746 1.26554 56.6746 0.815277C56.6746 0.365012 56.3098 0 55.8599 0C55.4099 0 55.0452 0.365012 55.0452 0.815277C55.0452 1.26554 55.4099 1.63055 55.8599 1.63055Z" fill="#F55F44"/>
</g>
<g class="sparkles">
<path id="Vector_21" opacity="0.5" d="M1.66872 34.4395C1.55646 34.3906 1.4661 34.3021 1.41484 34.1908C1.36357 34.0795 1.35498 33.9533 1.39071 33.8361C1.39649 33.8181 1.40013 33.7995 1.40155 33.7807V33.7807C1.40482 33.727 1.39072 33.6737 1.36133 33.6287C1.33195 33.5836 1.28885 33.5492 1.23842 33.5306C1.18798 33.512 1.1329 33.5101 1.08132 33.5253C1.02974 33.5404 0.984418 33.5718 0.952057 33.6148V33.6148C0.940928 33.63 0.931635 33.6465 0.92437 33.6639C0.875481 33.7763 0.787021 33.8667 0.675829 33.918C0.564638 33.9693 0.438478 33.9779 0.321364 33.9422C0.30341 33.9364 0.284835 33.9327 0.266027 33.9313V33.9313C0.212371 33.928 0.159089 33.9421 0.114074 33.9715C0.0690598 34.0009 0.0347066 34.0441 0.0161022 34.0946C-0.00250231 34.145 -0.00436762 34.2001 0.0107816 34.2518C0.0259308 34.3034 0.0572884 34.3487 0.100212 34.3811V34.3811C0.115441 34.3923 0.13193 34.4016 0.149338 34.4088C0.261593 34.4577 0.351954 34.5463 0.403218 34.6575C0.454482 34.7688 0.463069 34.8951 0.427349 35.0123C0.421568 35.0302 0.417926 35.0488 0.416498 35.0676V35.0676C0.413232 35.1213 0.427336 35.1746 0.456719 35.2197C0.486102 35.2647 0.529203 35.2991 0.579637 35.3177C0.630071 35.3364 0.685157 35.3382 0.736734 35.3231C0.788311 35.3079 0.833636 35.2765 0.865998 35.2336V35.2336C0.877126 35.2183 0.88642 35.2018 0.893684 35.1844C0.942574 35.0721 1.03103 34.9816 1.14222 34.9303C1.25342 34.879 1.37958 34.8705 1.49669 34.9062C1.51464 34.912 1.53322 34.9156 1.55203 34.9171V34.9171C1.60568 34.9203 1.65897 34.9062 1.70398 34.8768C1.749 34.8474 1.78335 34.8043 1.80196 34.7538C1.82056 34.7033 1.82243 34.6482 1.80728 34.5966C1.79213 34.545 1.76077 34.4996 1.71784 34.4672C1.70261 34.4561 1.68612 34.4468 1.66872 34.4395V34.4395Z" fill="#4D8AF0"/>
<path id="Vector_22" opacity="0.5" d="M25.0231 7.67129C24.9109 7.62236 24.8205 7.53384 24.7693 7.42257C24.718 7.31129 24.7094 7.18504 24.7451 7.06785C24.7509 7.04988 24.7546 7.03129 24.756 7.01247V7.01247C24.7593 6.95877 24.7452 6.90545 24.7158 6.8604C24.6864 6.81536 24.6433 6.78098 24.5928 6.76236C24.5424 6.74374 24.4873 6.74187 24.4358 6.75704C24.3842 6.7722 24.3388 6.80358 24.3065 6.84653V6.84653C24.2954 6.86177 24.2861 6.87828 24.2788 6.8957C24.2299 7.00803 24.1415 7.09846 24.0303 7.14976C23.9191 7.20106 23.7929 7.20965 23.6758 7.17391C23.6578 7.16812 23.6393 7.16448 23.6205 7.16305V7.16305C23.5668 7.15978 23.5135 7.17389 23.4685 7.2033C23.4235 7.2327 23.3891 7.27584 23.3705 7.32631C23.3519 7.37678 23.3501 7.4319 23.3652 7.48351C23.3804 7.53513 23.4117 7.58049 23.4546 7.61287V7.61287C23.4699 7.62401 23.4864 7.63331 23.5038 7.64058C23.616 7.6895 23.7064 7.77803 23.7576 7.8893C23.8089 8.00057 23.8175 8.12682 23.7818 8.24402C23.776 8.26198 23.7724 8.28057 23.7709 8.29939V8.29939C23.7677 8.35309 23.7818 8.40641 23.8112 8.45146C23.8405 8.49651 23.8836 8.53089 23.9341 8.5495C23.9845 8.56812 24.0396 8.56999 24.0912 8.55483C24.1427 8.53967 24.1881 8.50828 24.2204 8.46533C24.2316 8.45009 24.2409 8.43359 24.2481 8.41617C24.297 8.30383 24.3855 8.21341 24.4967 8.1621C24.6078 8.1108 24.734 8.10221 24.8511 8.13796C24.8691 8.14374 24.8876 8.14739 24.9065 8.14881V8.14881C24.9601 8.15208 25.0134 8.13797 25.0584 8.10857C25.1034 8.07916 25.1378 8.03603 25.1564 7.98556C25.175 7.93509 25.1769 7.87996 25.1617 7.82835C25.1466 7.77674 25.1152 7.73138 25.0723 7.69899V7.69899C25.057 7.68786 25.0406 7.67856 25.0231 7.67129V7.67129Z" fill="#4D8AF0"/>
<path id="Vector_23" opacity="0.5" d="M53.5373 77.1057C53.4251 77.0567 53.3347 76.9682 53.2835 76.8569C53.2322 76.7457 53.2236 76.6194 53.2593 76.5022C53.2651 76.4843 53.2688 76.4657 53.2702 76.4469V76.4469C53.2734 76.3932 53.2593 76.3398 53.23 76.2948C53.2006 76.2497 53.1575 76.2154 53.107 76.1967C53.0566 76.1781 53.0015 76.1763 52.9499 76.1914C52.8984 76.2066 52.853 76.238 52.8207 76.2809C52.8095 76.2962 52.8003 76.3127 52.793 76.3301C52.7441 76.4424 52.6556 76.5328 52.5445 76.5841C52.4333 76.6354 52.3071 76.644 52.19 76.6083C52.172 76.6025 52.1535 76.5989 52.1346 76.5974V76.5974C52.081 76.5942 52.0277 76.6083 51.9827 76.6377C51.9377 76.6671 51.9033 76.7102 51.8847 76.7607C51.8661 76.8112 51.8643 76.8663 51.8794 76.9179C51.8946 76.9695 51.9259 77.0149 51.9688 77.0472C51.9841 77.0584 52.0006 77.0677 52.018 77.075C52.1302 77.1239 52.2206 77.2124 52.2718 77.3237C52.3231 77.4349 52.3317 77.5612 52.296 77.6784C52.2902 77.6964 52.2866 77.7149 52.2851 77.7338V77.7338C52.2819 77.7875 52.296 77.8408 52.3253 77.8858C52.3547 77.9309 52.3978 77.9653 52.4483 77.9839C52.4987 78.0025 52.5538 78.0044 52.6054 77.9892C52.6569 77.974 52.7023 77.9427 52.7346 77.8997V77.8997C52.7457 77.8845 52.755 77.868 52.7623 77.8505C52.8112 77.7382 52.8997 77.6478 53.0108 77.5965C53.122 77.5452 53.2482 77.5366 53.3653 77.5723C53.3833 77.5781 53.4018 77.5818 53.4207 77.5832V77.5832C53.4743 77.5865 53.5276 77.5723 53.5726 77.5429C53.6176 77.5135 53.652 77.4704 53.6706 77.4199C53.6892 77.3695 53.6911 77.3143 53.6759 77.2627C53.6608 77.2111 53.6294 77.1658 53.5865 77.1334V77.1334C53.5712 77.1222 53.5548 77.1129 53.5373 77.1057V77.1057Z" fill="#4D8AF0"/>
<path id="Vector_24" opacity="0.5" d="M103.112 61.1458C103.562 61.1458 103.926 60.7808 103.926 60.3305C103.926 59.8802 103.562 59.5152 103.112 59.5152C102.662 59.5152 102.297 59.8802 102.297 60.3305C102.297 60.7808 102.662 61.1458 103.112 61.1458Z" fill="#F55F44"/>
<path id="Vector_25" opacity="0.5" d="M85.1886 66.3092C85.6386 66.3092 86.0033 65.9442 86.0033 65.4939C86.0033 65.0437 85.6386 64.6786 85.1886 64.6786C84.7387 64.6786 84.374 65.0437 84.374 65.4939C84.374 65.9442 84.7387 66.3092 85.1886 66.3092Z" fill="#4D8AF0"/>
<path id="Vector_26" opacity="0.5" d="M14.0391 74.3261C14.489 74.3261 14.8537 73.9611 14.8537 73.5108C14.8537 73.0605 14.489 72.6955 14.0391 72.6955C13.5891 72.6955 13.2244 73.0605 13.2244 73.5108C13.2244 73.9611 13.5891 74.3261 14.0391 74.3261Z" fill="#47E6B1"/>
<path id="Vector_27" opacity="0.5" d="M55.8599 1.63055C56.3098 1.63055 56.6746 1.26554 56.6746 0.815277C56.6746 0.365012 56.3098 0 55.8599 0C55.4099 0 55.0452 0.365012 55.0452 0.815277C55.0452 1.26554 55.4099 1.63055 55.8599 1.63055Z" fill="#F55F44"/>
</g>
<g class="sparkles">
<path id="Vector_21" opacity="0.5" d="M1.66872 34.4395C1.55646 34.3906 1.4661 34.3021 1.41484 34.1908C1.36357 34.0795 1.35498 33.9533 1.39071 33.8361C1.39649 33.8181 1.40013 33.7995 1.40155 33.7807V33.7807C1.40482 33.727 1.39072 33.6737 1.36133 33.6287C1.33195 33.5836 1.28885 33.5492 1.23842 33.5306C1.18798 33.512 1.1329 33.5101 1.08132 33.5253C1.02974 33.5404 0.984418 33.5718 0.952057 33.6148V33.6148C0.940928 33.63 0.931635 33.6465 0.92437 33.6639C0.875481 33.7763 0.787021 33.8667 0.675829 33.918C0.564638 33.9693 0.438478 33.9779 0.321364 33.9422C0.30341 33.9364 0.284835 33.9327 0.266027 33.9313V33.9313C0.212371 33.928 0.159089 33.9421 0.114074 33.9715C0.0690598 34.0009 0.0347066 34.0441 0.0161022 34.0946C-0.00250231 34.145 -0.00436762 34.2001 0.0107816 34.2518C0.0259308 34.3034 0.0572884 34.3487 0.100212 34.3811V34.3811C0.115441 34.3923 0.13193 34.4016 0.149338 34.4088C0.261593 34.4577 0.351954 34.5463 0.403218 34.6575C0.454482 34.7688 0.463069 34.8951 0.427349 35.0123C0.421568 35.0302 0.417926 35.0488 0.416498 35.0676V35.0676C0.413232 35.1213 0.427336 35.1746 0.456719 35.2197C0.486102 35.2647 0.529203 35.2991 0.579637 35.3177C0.630071 35.3364 0.685157 35.3382 0.736734 35.3231C0.788311 35.3079 0.833636 35.2765 0.865998 35.2336V35.2336C0.877126 35.2183 0.88642 35.2018 0.893684 35.1844C0.942574 35.0721 1.03103 34.9816 1.14222 34.9303C1.25342 34.879 1.37958 34.8705 1.49669 34.9062C1.51464 34.912 1.53322 34.9156 1.55203 34.9171V34.9171C1.60568 34.9203 1.65897 34.9062 1.70398 34.8768C1.749 34.8474 1.78335 34.8043 1.80196 34.7538C1.82056 34.7033 1.82243 34.6482 1.80728 34.5966C1.79213 34.545 1.76077 34.4996 1.71784 34.4672C1.70261 34.4561 1.68612 34.4468 1.66872 34.4395V34.4395Z" fill="#4D8AF0"/>
<path id="Vector_22" opacity="0.5" d="M25.0231 7.67129C24.9109 7.62236 24.8205 7.53384 24.7693 7.42257C24.718 7.31129 24.7094 7.18504 24.7451 7.06785C24.7509 7.04988 24.7546 7.03129 24.756 7.01247V7.01247C24.7593 6.95877 24.7452 6.90545 24.7158 6.8604C24.6864 6.81536 24.6433 6.78098 24.5928 6.76236C24.5424 6.74374 24.4873 6.74187 24.4358 6.75704C24.3842 6.7722 24.3388 6.80358 24.3065 6.84653V6.84653C24.2954 6.86177 24.2861 6.87828 24.2788 6.8957C24.2299 7.00803 24.1415 7.09846 24.0303 7.14976C23.9191 7.20106 23.7929 7.20965 23.6758 7.17391C23.6578 7.16812 23.6393 7.16448 23.6205 7.16305V7.16305C23.5668 7.15978 23.5135 7.17389 23.4685 7.2033C23.4235 7.2327 23.3891 7.27584 23.3705 7.32631C23.3519 7.37678 23.3501 7.4319 23.3652 7.48351C23.3804 7.53513 23.4117 7.58049 23.4546 7.61287V7.61287C23.4699 7.62401 23.4864 7.63331 23.5038 7.64058C23.616 7.6895 23.7064 7.77803 23.7576 7.8893C23.8089 8.00057 23.8175 8.12682 23.7818 8.24402C23.776 8.26198 23.7724 8.28057 23.7709 8.29939V8.29939C23.7677 8.35309 23.7818 8.40641 23.8112 8.45146C23.8405 8.49651 23.8836 8.53089 23.9341 8.5495C23.9845 8.56812 24.0396 8.56999 24.0912 8.55483C24.1427 8.53967 24.1881 8.50828 24.2204 8.46533C24.2316 8.45009 24.2409 8.43359 24.2481 8.41617C24.297 8.30383 24.3855 8.21341 24.4967 8.1621C24.6078 8.1108 24.734 8.10221 24.8511 8.13796C24.8691 8.14374 24.8876 8.14739 24.9065 8.14881V8.14881C24.9601 8.15208 25.0134 8.13797 25.0584 8.10857C25.1034 8.07916 25.1378 8.03603 25.1564 7.98556C25.175 7.93509 25.1769 7.87996 25.1617 7.82835C25.1466 7.77674 25.1152 7.73138 25.0723 7.69899V7.69899C25.057 7.68786 25.0406 7.67856 25.0231 7.67129V7.67129Z" fill="#4D8AF0"/>
<path id="Vector_23" opacity="0.5" d="M53.5373 77.1057C53.4251 77.0567 53.3347 76.9682 53.2835 76.8569C53.2322 76.7457 53.2236 76.6194 53.2593 76.5022C53.2651 76.4843 53.2688 76.4657 53.2702 76.4469V76.4469C53.2734 76.3932 53.2593 76.3398 53.23 76.2948C53.2006 76.2497 53.1575 76.2154 53.107 76.1967C53.0566 76.1781 53.0015 76.1763 52.9499 76.1914C52.8984 76.2066 52.853 76.238 52.8207 76.2809C52.8095 76.2962 52.8003 76.3127 52.793 76.3301C52.7441 76.4424 52.6556 76.5328 52.5445 76.5841C52.4333 76.6354 52.3071 76.644 52.19 76.6083C52.172 76.6025 52.1535 76.5989 52.1346 76.5974V76.5974C52.081 76.5942 52.0277 76.6083 51.9827 76.6377C51.9377 76.6671 51.9033 76.7102 51.8847 76.7607C51.8661 76.8112 51.8643 76.8663 51.8794 76.9179C51.8946 76.9695 51.9259 77.0149 51.9688 77.0472C51.9841 77.0584 52.0006 77.0677 52.018 77.075C52.1302 77.1239 52.2206 77.2124 52.2718 77.3237C52.3231 77.4349 52.3317 77.5612 52.296 77.6784C52.2902 77.6964 52.2866 77.7149 52.2851 77.7338V77.7338C52.2819 77.7875 52.296 77.8408 52.3253 77.8858C52.3547 77.9309 52.3978 77.9653 52.4483 77.9839C52.4987 78.0025 52.5538 78.0044 52.6054 77.9892C52.6569 77.974 52.7023 77.9427 52.7346 77.8997V77.8997C52.7457 77.8845 52.755 77.868 52.7623 77.8505C52.8112 77.7382 52.8997 77.6478 53.0108 77.5965C53.122 77.5452 53.2482 77.5366 53.3653 77.5723C53.3833 77.5781 53.4018 77.5818 53.4207 77.5832V77.5832C53.4743 77.5865 53.5276 77.5723 53.5726 77.5429C53.6176 77.5135 53.652 77.4704 53.6706 77.4199C53.6892 77.3695 53.6911 77.3143 53.6759 77.2627C53.6608 77.2111 53.6294 77.1658 53.5865 77.1334V77.1334C53.5712 77.1222 53.5548 77.1129 53.5373 77.1057V77.1057Z" fill="#4D8AF0"/>
<path id="Vector_24" opacity="0.5" d="M103.112 61.1458C103.562 61.1458 103.926 60.7808 103.926 60.3305C103.926 59.8802 103.562 59.5152 103.112 59.5152C102.662 59.5152 102.297 59.8802 102.297 60.3305C102.297 60.7808 102.662 61.1458 103.112 61.1458Z" fill="#F55F44"/>
<path id="Vector_25" opacity="0.5" d="M85.1886 66.3092C85.6386 66.3092 86.0033 65.9442 86.0033 65.4939C86.0033 65.0437 85.6386 64.6786 85.1886 64.6786C84.7387 64.6786 84.374 65.0437 84.374 65.4939C84.374 65.9442 84.7387 66.3092 85.1886 66.3092Z" fill="#4D8AF0"/>
<path id="Vector_26" opacity="0.5" d="M14.0391 74.3261C14.489 74.3261 14.8537 73.9611 14.8537 73.5108C14.8537 73.0605 14.489 72.6955 14.0391 72.6955C13.5891 72.6955 13.2244 73.0605 13.2244 73.5108C13.2244 73.9611 13.5891 74.3261 14.0391 74.3261Z" fill="#47E6B1"/>
<path id="Vector_27" opacity="0.5" d="M55.8599 1.63055C56.3098 1.63055 56.6746 1.26554 56.6746 0.815277C56.6746 0.365012 56.3098 0 55.8599 0C55.4099 0 55.0452 0.365012 55.0452 0.815277C55.0452 1.26554 55.4099 1.63055 55.8599 1.63055Z" fill="#F55F44"/>
</g>
<g class="sparkles">
<path id="Vector_21" opacity="0.5" d="M1.66872 34.4395C1.55646 34.3906 1.4661 34.3021 1.41484 34.1908C1.36357 34.0795 1.35498 33.9533 1.39071 33.8361C1.39649 33.8181 1.40013 33.7995 1.40155 33.7807V33.7807C1.40482 33.727 1.39072 33.6737 1.36133 33.6287C1.33195 33.5836 1.28885 33.5492 1.23842 33.5306C1.18798 33.512 1.1329 33.5101 1.08132 33.5253C1.02974 33.5404 0.984418 33.5718 0.952057 33.6148V33.6148C0.940928 33.63 0.931635 33.6465 0.92437 33.6639C0.875481 33.7763 0.787021 33.8667 0.675829 33.918C0.564638 33.9693 0.438478 33.9779 0.321364 33.9422C0.30341 33.9364 0.284835 33.9327 0.266027 33.9313V33.9313C0.212371 33.928 0.159089 33.9421 0.114074 33.9715C0.0690598 34.0009 0.0347066 34.0441 0.0161022 34.0946C-0.00250231 34.145 -0.00436762 34.2001 0.0107816 34.2518C0.0259308 34.3034 0.0572884 34.3487 0.100212 34.3811V34.3811C0.115441 34.3923 0.13193 34.4016 0.149338 34.4088C0.261593 34.4577 0.351954 34.5463 0.403218 34.6575C0.454482 34.7688 0.463069 34.8951 0.427349 35.0123C0.421568 35.0302 0.417926 35.0488 0.416498 35.0676V35.0676C0.413232 35.1213 0.427336 35.1746 0.456719 35.2197C0.486102 35.2647 0.529203 35.2991 0.579637 35.3177C0.630071 35.3364 0.685157 35.3382 0.736734 35.3231C0.788311 35.3079 0.833636 35.2765 0.865998 35.2336V35.2336C0.877126 35.2183 0.88642 35.2018 0.893684 35.1844C0.942574 35.0721 1.03103 34.9816 1.14222 34.9303C1.25342 34.879 1.37958 34.8705 1.49669 34.9062C1.51464 34.912 1.53322 34.9156 1.55203 34.9171V34.9171C1.60568 34.9203 1.65897 34.9062 1.70398 34.8768C1.749 34.8474 1.78335 34.8043 1.80196 34.7538C1.82056 34.7033 1.82243 34.6482 1.80728 34.5966C1.79213 34.545 1.76077 34.4996 1.71784 34.4672C1.70261 34.4561 1.68612 34.4468 1.66872 34.4395V34.4395Z" fill="#4D8AF0"/>
<path id="Vector_22" opacity="0.5" d="M25.0231 7.67129C24.9109 7.62236 24.8205 7.53384 24.7693 7.42257C24.718 7.31129 24.7094 7.18504 24.7451 7.06785C24.7509 7.04988 24.7546 7.03129 24.756 7.01247V7.01247C24.7593 6.95877 24.7452 6.90545 24.7158 6.8604C24.6864 6.81536 24.6433 6.78098 24.5928 6.76236C24.5424 6.74374 24.4873 6.74187 24.4358 6.75704C24.3842 6.7722 24.3388 6.80358 24.3065 6.84653V6.84653C24.2954 6.86177 24.2861 6.87828 24.2788 6.8957C24.2299 7.00803 24.1415 7.09846 24.0303 7.14976C23.9191 7.20106 23.7929 7.20965 23.6758 7.17391C23.6578 7.16812 23.6393 7.16448 23.6205 7.16305V7.16305C23.5668 7.15978 23.5135 7.17389 23.4685 7.2033C23.4235 7.2327 23.3891 7.27584 23.3705 7.32631C23.3519 7.37678 23.3501 7.4319 23.3652 7.48351C23.3804 7.53513 23.4117 7.58049 23.4546 7.61287V7.61287C23.4699 7.62401 23.4864 7.63331 23.5038 7.64058C23.616 7.6895 23.7064 7.77803 23.7576 7.8893C23.8089 8.00057 23.8175 8.12682 23.7818 8.24402C23.776 8.26198 23.7724 8.28057 23.7709 8.29939V8.29939C23.7677 8.35309 23.7818 8.40641 23.8112 8.45146C23.8405 8.49651 23.8836 8.53089 23.9341 8.5495C23.9845 8.56812 24.0396 8.56999 24.0912 8.55483C24.1427 8.53967 24.1881 8.50828 24.2204 8.46533C24.2316 8.45009 24.2409 8.43359 24.2481 8.41617C24.297 8.30383 24.3855 8.21341 24.4967 8.1621C24.6078 8.1108 24.734 8.10221 24.8511 8.13796C24.8691 8.14374 24.8876 8.14739 24.9065 8.14881V8.14881C24.9601 8.15208 25.0134 8.13797 25.0584 8.10857C25.1034 8.07916 25.1378 8.03603 25.1564 7.98556C25.175 7.93509 25.1769 7.87996 25.1617 7.82835C25.1466 7.77674 25.1152 7.73138 25.0723 7.69899V7.69899C25.057 7.68786 25.0406 7.67856 25.0231 7.67129V7.67129Z" fill="#4D8AF0"/>
<path id="Vector_23" opacity="0.5" d="M53.5373 77.1057C53.4251 77.0567 53.3347 76.9682 53.2835 76.8569C53.2322 76.7457 53.2236 76.6194 53.2593 76.5022C53.2651 76.4843 53.2688 76.4657 53.2702 76.4469V76.4469C53.2734 76.3932 53.2593 76.3398 53.23 76.2948C53.2006 76.2497 53.1575 76.2154 53.107 76.1967C53.0566 76.1781 53.0015 76.1763 52.9499 76.1914C52.8984 76.2066 52.853 76.238 52.8207 76.2809C52.8095 76.2962 52.8003 76.3127 52.793 76.3301C52.7441 76.4424 52.6556 76.5328 52.5445 76.5841C52.4333 76.6354 52.3071 76.644 52.19 76.6083C52.172 76.6025 52.1535 76.5989 52.1346 76.5974V76.5974C52.081 76.5942 52.0277 76.6083 51.9827 76.6377C51.9377 76.6671 51.9033 76.7102 51.8847 76.7607C51.8661 76.8112 51.8643 76.8663 51.8794 76.9179C51.8946 76.9695 51.9259 77.0149 51.9688 77.0472C51.9841 77.0584 52.0006 77.0677 52.018 77.075C52.1302 77.1239 52.2206 77.2124 52.2718 77.3237C52.3231 77.4349 52.3317 77.5612 52.296 77.6784C52.2902 77.6964 52.2866 77.7149 52.2851 77.7338V77.7338C52.2819 77.7875 52.296 77.8408 52.3253 77.8858C52.3547 77.9309 52.3978 77.9653 52.4483 77.9839C52.4987 78.0025 52.5538 78.0044 52.6054 77.9892C52.6569 77.974 52.7023 77.9427 52.7346 77.8997V77.8997C52.7457 77.8845 52.755 77.868 52.7623 77.8505C52.8112 77.7382 52.8997 77.6478 53.0108 77.5965C53.122 77.5452 53.2482 77.5366 53.3653 77.5723C53.3833 77.5781 53.4018 77.5818 53.4207 77.5832V77.5832C53.4743 77.5865 53.5276 77.5723 53.5726 77.5429C53.6176 77.5135 53.652 77.4704 53.6706 77.4199C53.6892 77.3695 53.6911 77.3143 53.6759 77.2627C53.6608 77.2111 53.6294 77.1658 53.5865 77.1334V77.1334C53.5712 77.1222 53.5548 77.1129 53.5373 77.1057V77.1057Z" fill="#4D8AF0"/>
<path id="Vector_24" opacity="0.5" d="M103.112 61.1458C103.562 61.1458 103.926 60.7808 103.926 60.3305C103.926 59.8802 103.562 59.5152 103.112 59.5152C102.662 59.5152 102.297 59.8802 102.297 60.3305C102.297 60.7808 102.662 61.1458 103.112 61.1458Z" fill="#F55F44"/>
<path id="Vector_25" opacity="0.5" d="M85.1886 66.3092C85.6386 66.3092 86.0033 65.9442 86.0033 65.4939C86.0033 65.0437 85.6386 64.6786 85.1886 64.6786C84.7387 64.6786 84.374 65.0437 84.374 65.4939C84.374 65.9442 84.7387 66.3092 85.1886 66.3092Z" fill="#4D8AF0"/>
<path id="Vector_26" opacity="0.5" d="M14.0391 74.3261C14.489 74.3261 14.8537 73.9611 14.8537 73.5108C14.8537 73.0605 14.489 72.6955 14.0391 72.6955C13.5891 72.6955 13.2244 73.0605 13.2244 73.5108C13.2244 73.9611 13.5891 74.3261 14.0391 74.3261Z" fill="#47E6B1"/>
<path id="Vector_27" opacity="0.5" d="M55.8599 1.63055C56.3098 1.63055 56.6746 1.26554 56.6746 0.815277C56.6746 0.365012 56.3098 0 55.8599 0C55.4099 0 55.0452 0.365012 55.0452 0.815277C55.0452 1.26554 55.4099 1.63055 55.8599 1.63055Z" fill="#F55F44"/>
</g>
<g class="sparkles">
<path id="Vector_21" opacity="0.5" d="M1.66872 34.4395C1.55646 34.3906 1.4661 34.3021 1.41484 34.1908C1.36357 34.0795 1.35498 33.9533 1.39071 33.8361C1.39649 33.8181 1.40013 33.7995 1.40155 33.7807V33.7807C1.40482 33.727 1.39072 33.6737 1.36133 33.6287C1.33195 33.5836 1.28885 33.5492 1.23842 33.5306C1.18798 33.512 1.1329 33.5101 1.08132 33.5253C1.02974 33.5404 0.984418 33.5718 0.952057 33.6148V33.6148C0.940928 33.63 0.931635 33.6465 0.92437 33.6639C0.875481 33.7763 0.787021 33.8667 0.675829 33.918C0.564638 33.9693 0.438478 33.9779 0.321364 33.9422C0.30341 33.9364 0.284835 33.9327 0.266027 33.9313V33.9313C0.212371 33.928 0.159089 33.9421 0.114074 33.9715C0.0690598 34.0009 0.0347066 34.0441 0.0161022 34.0946C-0.00250231 34.145 -0.00436762 34.2001 0.0107816 34.2518C0.0259308 34.3034 0.0572884 34.3487 0.100212 34.3811V34.3811C0.115441 34.3923 0.13193 34.4016 0.149338 34.4088C0.261593 34.4577 0.351954 34.5463 0.403218 34.6575C0.454482 34.7688 0.463069 34.8951 0.427349 35.0123C0.421568 35.0302 0.417926 35.0488 0.416498 35.0676V35.0676C0.413232 35.1213 0.427336 35.1746 0.456719 35.2197C0.486102 35.2647 0.529203 35.2991 0.579637 35.3177C0.630071 35.3364 0.685157 35.3382 0.736734 35.3231C0.788311 35.3079 0.833636 35.2765 0.865998 35.2336V35.2336C0.877126 35.2183 0.88642 35.2018 0.893684 35.1844C0.942574 35.0721 1.03103 34.9816 1.14222 34.9303C1.25342 34.879 1.37958 34.8705 1.49669 34.9062C1.51464 34.912 1.53322 34.9156 1.55203 34.9171V34.9171C1.60568 34.9203 1.65897 34.9062 1.70398 34.8768C1.749 34.8474 1.78335 34.8043 1.80196 34.7538C1.82056 34.7033 1.82243 34.6482 1.80728 34.5966C1.79213 34.545 1.76077 34.4996 1.71784 34.4672C1.70261 34.4561 1.68612 34.4468 1.66872 34.4395V34.4395Z" fill="#4D8AF0"/>
<path id="Vector_22" opacity="0.5" d="M25.0231 7.67129C24.9109 7.62236 24.8205 7.53384 24.7693 7.42257C24.718 7.31129 24.7094 7.18504 24.7451 7.06785C24.7509 7.04988 24.7546 7.03129 24.756 7.01247V7.01247C24.7593 6.95877 24.7452 6.90545 24.7158 6.8604C24.6864 6.81536 24.6433 6.78098 24.5928 6.76236C24.5424 6.74374 24.4873 6.74187 24.4358 6.75704C24.3842 6.7722 24.3388 6.80358 24.3065 6.84653V6.84653C24.2954 6.86177 24.2861 6.87828 24.2788 6.8957C24.2299 7.00803 24.1415 7.09846 24.0303 7.14976C23.9191 7.20106 23.7929 7.20965 23.6758 7.17391C23.6578 7.16812 23.6393 7.16448 23.6205 7.16305V7.16305C23.5668 7.15978 23.5135 7.17389 23.4685 7.2033C23.4235 7.2327 23.3891 7.27584 23.3705 7.32631C23.3519 7.37678 23.3501 7.4319 23.3652 7.48351C23.3804 7.53513 23.4117 7.58049 23.4546 7.61287V7.61287C23.4699 7.62401 23.4864 7.63331 23.5038 7.64058C23.616 7.6895 23.7064 7.77803 23.7576 7.8893C23.8089 8.00057 23.8175 8.12682 23.7818 8.24402C23.776 8.26198 23.7724 8.28057 23.7709 8.29939V8.29939C23.7677 8.35309 23.7818 8.40641 23.8112 8.45146C23.8405 8.49651 23.8836 8.53089 23.9341 8.5495C23.9845 8.56812 24.0396 8.56999 24.0912 8.55483C24.1427 8.53967 24.1881 8.50828 24.2204 8.46533C24.2316 8.45009 24.2409 8.43359 24.2481 8.41617C24.297 8.30383 24.3855 8.21341 24.4967 8.1621C24.6078 8.1108 24.734 8.10221 24.8511 8.13796C24.8691 8.14374 24.8876 8.14739 24.9065 8.14881V8.14881C24.9601 8.15208 25.0134 8.13797 25.0584 8.10857C25.1034 8.07916 25.1378 8.03603 25.1564 7.98556C25.175 7.93509 25.1769 7.87996 25.1617 7.82835C25.1466 7.77674 25.1152 7.73138 25.0723 7.69899V7.69899C25.057 7.68786 25.0406 7.67856 25.0231 7.67129V7.67129Z" fill="#4D8AF0"/>
<path id="Vector_23" opacity="0.5" d="M53.5373 77.1057C53.4251 77.0567 53.3347 76.9682 53.2835 76.8569C53.2322 76.7457 53.2236 76.6194 53.2593 76.5022C53.2651 76.4843 53.2688 76.4657 53.2702 76.4469V76.4469C53.2734 76.3932 53.2593 76.3398 53.23 76.2948C53.2006 76.2497 53.1575 76.2154 53.107 76.1967C53.0566 76.1781 53.0015 76.1763 52.9499 76.1914C52.8984 76.2066 52.853 76.238 52.8207 76.2809C52.8095 76.2962 52.8003 76.3127 52.793 76.3301C52.7441 76.4424 52.6556 76.5328 52.5445 76.5841C52.4333 76.6354 52.3071 76.644 52.19 76.6083C52.172 76.6025 52.1535 76.5989 52.1346 76.5974V76.5974C52.081 76.5942 52.0277 76.6083 51.9827 76.6377C51.9377 76.6671 51.9033 76.7102 51.8847 76.7607C51.8661 76.8112 51.8643 76.8663 51.8794 76.9179C51.8946 76.9695 51.9259 77.0149 51.9688 77.0472C51.9841 77.0584 52.0006 77.0677 52.018 77.075C52.1302 77.1239 52.2206 77.2124 52.2718 77.3237C52.3231 77.4349 52.3317 77.5612 52.296 77.6784C52.2902 77.6964 52.2866 77.7149 52.2851 77.7338V77.7338C52.2819 77.7875 52.296 77.8408 52.3253 77.8858C52.3547 77.9309 52.3978 77.9653 52.4483 77.9839C52.4987 78.0025 52.5538 78.0044 52.6054 77.9892C52.6569 77.974 52.7023 77.9427 52.7346 77.8997V77.8997C52.7457 77.8845 52.755 77.868 52.7623 77.8505C52.8112 77.7382 52.8997 77.6478 53.0108 77.5965C53.122 77.5452 53.2482 77.5366 53.3653 77.5723C53.3833 77.5781 53.4018 77.5818 53.4207 77.5832V77.5832C53.4743 77.5865 53.5276 77.5723 53.5726 77.5429C53.6176 77.5135 53.652 77.4704 53.6706 77.4199C53.6892 77.3695 53.6911 77.3143 53.6759 77.2627C53.6608 77.2111 53.6294 77.1658 53.5865 77.1334V77.1334C53.5712 77.1222 53.5548 77.1129 53.5373 77.1057V77.1057Z" fill="#4D8AF0"/>
<path id="Vector_24" opacity="0.5" d="M103.112 61.1458C103.562 61.1458 103.926 60.7808 103.926 60.3305C103.926 59.8802 103.562 59.5152 103.112 59.5152C102.662 59.5152 102.297 59.8802 102.297 60.3305C102.297 60.7808 102.662 61.1458 103.112 61.1458Z" fill="#F55F44"/>
<path id="Vector_25" opacity="0.5" d="M85.1886 66.3092C85.6386 66.3092 86.0033 65.9442 86.0033 65.4939C86.0033 65.0437 85.6386 64.6786 85.1886 64.6786C84.7387 64.6786 84.374 65.0437 84.374 65.4939C84.374 65.9442 84.7387 66.3092 85.1886 66.3092Z" fill="#4D8AF0"/>
<path id="Vector_26" opacity="0.5" d="M14.0391 74.3261C14.489 74.3261 14.8537 73.9611 14.8537 73.5108C14.8537 73.0605 14.489 72.6955 14.0391 72.6955C13.5891 72.6955 13.2244 73.0605 13.2244 73.5108C13.2244 73.9611 13.5891 74.3261 14.0391 74.3261Z" fill="#47E6B1"/>
<path id="Vector_27" opacity="0.5" d="M55.8599 1.63055C56.3098 1.63055 56.6746 1.26554 56.6746 0.815277C56.6746 0.365012 56.3098 0 55.8599 0C55.4099 0 55.0452 0.365012 55.0452 0.815277C55.0452 1.26554 55.4099 1.63055 55.8599 1.63055Z" fill="#F55F44"/>
</g>
<g class="sparkles">
<path id="Vector_21" opacity="0.5" d="M1.66872 34.4395C1.55646 34.3906 1.4661 34.3021 1.41484 34.1908C1.36357 34.0795 1.35498 33.9533 1.39071 33.8361C1.39649 33.8181 1.40013 33.7995 1.40155 33.7807V33.7807C1.40482 33.727 1.39072 33.6737 1.36133 33.6287C1.33195 33.5836 1.28885 33.5492 1.23842 33.5306C1.18798 33.512 1.1329 33.5101 1.08132 33.5253C1.02974 33.5404 0.984418 33.5718 0.952057 33.6148V33.6148C0.940928 33.63 0.931635 33.6465 0.92437 33.6639C0.875481 33.7763 0.787021 33.8667 0.675829 33.918C0.564638 33.9693 0.438478 33.9779 0.321364 33.9422C0.30341 33.9364 0.284835 33.9327 0.266027 33.9313V33.9313C0.212371 33.928 0.159089 33.9421 0.114074 33.9715C0.0690598 34.0009 0.0347066 34.0441 0.0161022 34.0946C-0.00250231 34.145 -0.00436762 34.2001 0.0107816 34.2518C0.0259308 34.3034 0.0572884 34.3487 0.100212 34.3811V34.3811C0.115441 34.3923 0.13193 34.4016 0.149338 34.4088C0.261593 34.4577 0.351954 34.5463 0.403218 34.6575C0.454482 34.7688 0.463069 34.8951 0.427349 35.0123C0.421568 35.0302 0.417926 35.0488 0.416498 35.0676V35.0676C0.413232 35.1213 0.427336 35.1746 0.456719 35.2197C0.486102 35.2647 0.529203 35.2991 0.579637 35.3177C0.630071 35.3364 0.685157 35.3382 0.736734 35.3231C0.788311 35.3079 0.833636 35.2765 0.865998 35.2336V35.2336C0.877126 35.2183 0.88642 35.2018 0.893684 35.1844C0.942574 35.0721 1.03103 34.9816 1.14222 34.9303C1.25342 34.879 1.37958 34.8705 1.49669 34.9062C1.51464 34.912 1.53322 34.9156 1.55203 34.9171V34.9171C1.60568 34.9203 1.65897 34.9062 1.70398 34.8768C1.749 34.8474 1.78335 34.8043 1.80196 34.7538C1.82056 34.7033 1.82243 34.6482 1.80728 34.5966C1.79213 34.545 1.76077 34.4996 1.71784 34.4672C1.70261 34.4561 1.68612 34.4468 1.66872 34.4395V34.4395Z" fill="#4D8AF0"/>
<path id="Vector_22" opacity="0.5" d="M25.0231 7.67129C24.9109 7.62236 24.8205 7.53384 24.7693 7.42257C24.718 7.31129 24.7094 7.18504 24.7451 7.06785C24.7509 7.04988 24.7546 7.03129 24.756 7.01247V7.01247C24.7593 6.95877 24.7452 6.90545 24.7158 6.8604C24.6864 6.81536 24.6433 6.78098 24.5928 6.76236C24.5424 6.74374 24.4873 6.74187 24.4358 6.75704C24.3842 6.7722 24.3388 6.80358 24.3065 6.84653V6.84653C24.2954 6.86177 24.2861 6.87828 24.2788 6.8957C24.2299 7.00803 24.1415 7.09846 24.0303 7.14976C23.9191 7.20106 23.7929 7.20965 23.6758 7.17391C23.6578 7.16812 23.6393 7.16448 23.6205 7.16305V7.16305C23.5668 7.15978 23.5135 7.17389 23.4685 7.2033C23.4235 7.2327 23.3891 7.27584 23.3705 7.32631C23.3519 7.37678 23.3501 7.4319 23.3652 7.48351C23.3804 7.53513 23.4117 7.58049 23.4546 7.61287V7.61287C23.4699 7.62401 23.4864 7.63331 23.5038 7.64058C23.616 7.6895 23.7064 7.77803 23.7576 7.8893C23.8089 8.00057 23.8175 8.12682 23.7818 8.24402C23.776 8.26198 23.7724 8.28057 23.7709 8.29939V8.29939C23.7677 8.35309 23.7818 8.40641 23.8112 8.45146C23.8405 8.49651 23.8836 8.53089 23.9341 8.5495C23.9845 8.56812 24.0396 8.56999 24.0912 8.55483C24.1427 8.53967 24.1881 8.50828 24.2204 8.46533C24.2316 8.45009 24.2409 8.43359 24.2481 8.41617C24.297 8.30383 24.3855 8.21341 24.4967 8.1621C24.6078 8.1108 24.734 8.10221 24.8511 8.13796C24.8691 8.14374 24.8876 8.14739 24.9065 8.14881V8.14881C24.9601 8.15208 25.0134 8.13797 25.0584 8.10857C25.1034 8.07916 25.1378 8.03603 25.1564 7.98556C25.175 7.93509 25.1769 7.87996 25.1617 7.82835C25.1466 7.77674 25.1152 7.73138 25.0723 7.69899V7.69899C25.057 7.68786 25.0406 7.67856 25.0231 7.67129V7.67129Z" fill="#4D8AF0"/>
<path id="Vector_23" opacity="0.5" d="M53.5373 77.1057C53.4251 77.0567 53.3347 76.9682 53.2835 76.8569C53.2322 76.7457 53.2236 76.6194 53.2593 76.5022C53.2651 76.4843 53.2688 76.4657 53.2702 76.4469V76.4469C53.2734 76.3932 53.2593 76.3398 53.23 76.2948C53.2006 76.2497 53.1575 76.2154 53.107 76.1967C53.0566 76.1781 53.0015 76.1763 52.9499 76.1914C52.8984 76.2066 52.853 76.238 52.8207 76.2809C52.8095 76.2962 52.8003 76.3127 52.793 76.3301C52.7441 76.4424 52.6556 76.5328 52.5445 76.5841C52.4333 76.6354 52.3071 76.644 52.19 76.6083C52.172 76.6025 52.1535 76.5989 52.1346 76.5974V76.5974C52.081 76.5942 52.0277 76.6083 51.9827 76.6377C51.9377 76.6671 51.9033 76.7102 51.8847 76.7607C51.8661 76.8112 51.8643 76.8663 51.8794 76.9179C51.8946 76.9695 51.9259 77.0149 51.9688 77.0472C51.9841 77.0584 52.0006 77.0677 52.018 77.075C52.1302 77.1239 52.2206 77.2124 52.2718 77.3237C52.3231 77.4349 52.3317 77.5612 52.296 77.6784C52.2902 77.6964 52.2866 77.7149 52.2851 77.7338V77.7338C52.2819 77.7875 52.296 77.8408 52.3253 77.8858C52.3547 77.9309 52.3978 77.9653 52.4483 77.9839C52.4987 78.0025 52.5538 78.0044 52.6054 77.9892C52.6569 77.974 52.7023 77.9427 52.7346 77.8997V77.8997C52.7457 77.8845 52.755 77.868 52.7623 77.8505C52.8112 77.7382 52.8997 77.6478 53.0108 77.5965C53.122 77.5452 53.2482 77.5366 53.3653 77.5723C53.3833 77.5781 53.4018 77.5818 53.4207 77.5832V77.5832C53.4743 77.5865 53.5276 77.5723 53.5726 77.5429C53.6176 77.5135 53.652 77.4704 53.6706 77.4199C53.6892 77.3695 53.6911 77.3143 53.6759 77.2627C53.6608 77.2111 53.6294 77.1658 53.5865 77.1334V77.1334C53.5712 77.1222 53.5548 77.1129 53.5373 77.1057V77.1057Z" fill="#4D8AF0"/>
<path id="Vector_24" opacity="0.5" d="M103.112 61.1458C103.562 61.1458 103.926 60.7808 103.926 60.3305C103.926 59.8802 103.562 59.5152 103.112 59.5152C102.662 59.5152 102.297 59.8802 102.297 60.3305C102.297 60.7808 102.662 61.1458 103.112 61.1458Z" fill="#F55F44"/>
<path id="Vector_25" opacity="0.5" d="M85.1886 66.3092C85.6386 66.3092 86.0033 65.9442 86.0033 65.4939C86.0033 65.0437 85.6386 64.6786 85.1886 64.6786C84.7387 64.6786 84.374 65.0437 84.374 65.4939C84.374 65.9442 84.7387 66.3092 85.1886 66.3092Z" fill="#4D8AF0"/>
<path id="Vector_26" opacity="0.5" d="M14.0391 74.3261C14.489 74.3261 14.8537 73.9611 14.8537 73.5108C14.8537 73.0605 14.489 72.6955 14.0391 72.6955C13.5891 72.6955 13.2244 73.0605 13.2244 73.5108C13.2244 73.9611 13.5891 74.3261 14.0391 74.3261Z" fill="#47E6B1"/>
<path id="Vector_27" opacity="0.5" d="M55.8599 1.63055C56.3098 1.63055 56.6746 1.26554 56.6746 0.815277C56.6746 0.365012 56.3098 0 55.8599 0C55.4099 0 55.0452 0.365012 55.0452 0.815277C55.0452 1.26554 55.4099 1.63055 55.8599 1.63055Z" fill="#F55F44"/>
</g>
<g class="sparkles">
<path id="Vector_21" opacity="0.5" d="M1.66872 34.4395C1.55646 34.3906 1.4661 34.3021 1.41484 34.1908C1.36357 34.0795 1.35498 33.9533 1.39071 33.8361C1.39649 33.8181 1.40013 33.7995 1.40155 33.7807V33.7807C1.40482 33.727 1.39072 33.6737 1.36133 33.6287C1.33195 33.5836 1.28885 33.5492 1.23842 33.5306C1.18798 33.512 1.1329 33.5101 1.08132 33.5253C1.02974 33.5404 0.984418 33.5718 0.952057 33.6148V33.6148C0.940928 33.63 0.931635 33.6465 0.92437 33.6639C0.875481 33.7763 0.787021 33.8667 0.675829 33.918C0.564638 33.9693 0.438478 33.9779 0.321364 33.9422C0.30341 33.9364 0.284835 33.9327 0.266027 33.9313V33.9313C0.212371 33.928 0.159089 33.9421 0.114074 33.9715C0.0690598 34.0009 0.0347066 34.0441 0.0161022 34.0946C-0.00250231 34.145 -0.00436762 34.2001 0.0107816 34.2518C0.0259308 34.3034 0.0572884 34.3487 0.100212 34.3811V34.3811C0.115441 34.3923 0.13193 34.4016 0.149338 34.4088C0.261593 34.4577 0.351954 34.5463 0.403218 34.6575C0.454482 34.7688 0.463069 34.8951 0.427349 35.0123C0.421568 35.0302 0.417926 35.0488 0.416498 35.0676V35.0676C0.413232 35.1213 0.427336 35.1746 0.456719 35.2197C0.486102 35.2647 0.529203 35.2991 0.579637 35.3177C0.630071 35.3364 0.685157 35.3382 0.736734 35.3231C0.788311 35.3079 0.833636 35.2765 0.865998 35.2336V35.2336C0.877126 35.2183 0.88642 35.2018 0.893684 35.1844C0.942574 35.0721 1.03103 34.9816 1.14222 34.9303C1.25342 34.879 1.37958 34.8705 1.49669 34.9062C1.51464 34.912 1.53322 34.9156 1.55203 34.9171V34.9171C1.60568 34.9203 1.65897 34.9062 1.70398 34.8768C1.749 34.8474 1.78335 34.8043 1.80196 34.7538C1.82056 34.7033 1.82243 34.6482 1.80728 34.5966C1.79213 34.545 1.76077 34.4996 1.71784 34.4672C1.70261 34.4561 1.68612 34.4468 1.66872 34.4395V34.4395Z" fill="#4D8AF0"/>
<path id="Vector_22" opacity="0.5" d="M25.0231 7.67129C24.9109 7.62236 24.8205 7.53384 24.7693 7.42257C24.718 7.31129 24.7094 7.18504 24.7451 7.06785C24.7509 7.04988 24.7546 7.03129 24.756 7.01247V7.01247C24.7593 6.95877 24.7452 6.90545 24.7158 6.8604C24.6864 6.81536 24.6433 6.78098 24.5928 6.76236C24.5424 6.74374 24.4873 6.74187 24.4358 6.75704C24.3842 6.7722 24.3388 6.80358 24.3065 6.84653V6.84653C24.2954 6.86177 24.2861 6.87828 24.2788 6.8957C24.2299 7.00803 24.1415 7.09846 24.0303 7.14976C23.9191 7.20106 23.7929 7.20965 23.6758 7.17391C23.6578 7.16812 23.6393 7.16448 23.6205 7.16305V7.16305C23.5668 7.15978 23.5135 7.17389 23.4685 7.2033C23.4235 7.2327 23.3891 7.27584 23.3705 7.32631C23.3519 7.37678 23.3501 7.4319 23.3652 7.48351C23.3804 7.53513 23.4117 7.58049 23.4546 7.61287V7.61287C23.4699 7.62401 23.4864 7.63331 23.5038 7.64058C23.616 7.6895 23.7064 7.77803 23.7576 7.8893C23.8089 8.00057 23.8175 8.12682 23.7818 8.24402C23.776 8.26198 23.7724 8.28057 23.7709 8.29939V8.29939C23.7677 8.35309 23.7818 8.40641 23.8112 8.45146C23.8405 8.49651 23.8836 8.53089 23.9341 8.5495C23.9845 8.56812 24.0396 8.56999 24.0912 8.55483C24.1427 8.53967 24.1881 8.50828 24.2204 8.46533C24.2316 8.45009 24.2409 8.43359 24.2481 8.41617C24.297 8.30383 24.3855 8.21341 24.4967 8.1621C24.6078 8.1108 24.734 8.10221 24.8511 8.13796C24.8691 8.14374 24.8876 8.14739 24.9065 8.14881V8.14881C24.9601 8.15208 25.0134 8.13797 25.0584 8.10857C25.1034 8.07916 25.1378 8.03603 25.1564 7.98556C25.175 7.93509 25.1769 7.87996 25.1617 7.82835C25.1466 7.77674 25.1152 7.73138 25.0723 7.69899V7.69899C25.057 7.68786 25.0406 7.67856 25.0231 7.67129V7.67129Z" fill="#4D8AF0"/>
<path id="Vector_23" opacity="0.5" d="M53.5373 77.1057C53.4251 77.0567 53.3347 76.9682 53.2835 76.8569C53.2322 76.7457 53.2236 76.6194 53.2593 76.5022C53.2651 76.4843 53.2688 76.4657 53.2702 76.4469V76.4469C53.2734 76.3932 53.2593 76.3398 53.23 76.2948C53.2006 76.2497 53.1575 76.2154 53.107 76.1967C53.0566 76.1781 53.0015 76.1763 52.9499 76.1914C52.8984 76.2066 52.853 76.238 52.8207 76.2809C52.8095 76.2962 52.8003 76.3127 52.793 76.3301C52.7441 76.4424 52.6556 76.5328 52.5445 76.5841C52.4333 76.6354 52.3071 76.644 52.19 76.6083C52.172 76.6025 52.1535 76.5989 52.1346 76.5974V76.5974C52.081 76.5942 52.0277 76.6083 51.9827 76.6377C51.9377 76.6671 51.9033 76.7102 51.8847 76.7607C51.8661 76.8112 51.8643 76.8663 51.8794 76.9179C51.8946 76.9695 51.9259 77.0149 51.9688 77.0472C51.9841 77.0584 52.0006 77.0677 52.018 77.075C52.1302 77.1239 52.2206 77.2124 52.2718 77.3237C52.3231 77.4349 52.3317 77.5612 52.296 77.6784C52.2902 77.6964 52.2866 77.7149 52.2851 77.7338V77.7338C52.2819 77.7875 52.296 77.8408 52.3253 77.8858C52.3547 77.9309 52.3978 77.9653 52.4483 77.9839C52.4987 78.0025 52.5538 78.0044 52.6054 77.9892C52.6569 77.974 52.7023 77.9427 52.7346 77.8997V77.8997C52.7457 77.8845 52.755 77.868 52.7623 77.8505C52.8112 77.7382 52.8997 77.6478 53.0108 77.5965C53.122 77.5452 53.2482 77.5366 53.3653 77.5723C53.3833 77.5781 53.4018 77.5818 53.4207 77.5832V77.5832C53.4743 77.5865 53.5276 77.5723 53.5726 77.5429C53.6176 77.5135 53.652 77.4704 53.6706 77.4199C53.6892 77.3695 53.6911 77.3143 53.6759 77.2627C53.6608 77.2111 53.6294 77.1658 53.5865 77.1334V77.1334C53.5712 77.1222 53.5548 77.1129 53.5373 77.1057V77.1057Z" fill="#4D8AF0"/>
<path id="Vector_24" opacity="0.5" d="M103.112 61.1458C103.562 61.1458 103.926 60.7808 103.926 60.3305C103.926 59.8802 103.562 59.5152 103.112 59.5152C102.662 59.5152 102.297 59.8802 102.297 60.3305C102.297 60.7808 102.662 61.1458 103.112 61.1458Z" fill="#F55F44"/>
<path id="Vector_25" opacity="0.5" d="M85.1886 66.3092C85.6386 66.3092 86.0033 65.9442 86.0033 65.4939C86.0033 65.0437 85.6386 64.6786 85.1886 64.6786C84.7387 64.6786 84.374 65.0437 84.374 65.4939C84.374 65.9442 84.7387 66.3092 85.1886 66.3092Z" fill="#4D8AF0"/>
<path id="Vector_26" opacity="0.5" d="M14.0391 74.3261C14.489 74.3261 14.8537 73.9611 14.8537 73.5108C14.8537 73.0605 14.489 72.6955 14.0391 72.6955C13.5891 72.6955 13.2244 73.0605 13.2244 73.5108C13.2244 73.9611 13.5891 74.3261 14.0391 74.3261Z" fill="#47E6B1"/>
<path id="Vector_27" opacity="0.5" d="M55.8599 1.63055C56.3098 1.63055 56.6746 1.26554 56.6746 0.815277C56.6746 0.365012 56.3098 0 55.8599 0C55.4099 0 55.0452 0.365012 55.0452 0.815277C55.0452 1.26554 55.4099 1.63055 55.8599 1.63055Z" fill="#F55F44"/>
</g>
<g id="hat">
<path id="Vector_28" d="M27.8209 48.5769L24.5622 53.4686C24.5622 53.4686 25.6484 58.4961 49.6818 58.3602C73.7151 58.2244 75.6161 53.4686 75.6161 53.4686L71.1353 46.9464L57.4213 37.5707L27.8209 48.5769Z" fill="#4D8AF0"/>
<path id="Vector_29" opacity="0.15" d="M27.8209 48.5769L24.5622 53.4686C24.5622 53.4686 25.6484 58.4961 49.6818 58.3602C73.7151 58.2244 75.6161 53.4686 75.6161 53.4686L71.1353 46.9464L57.4213 37.5707L27.8209 48.5769Z" fill="black"/>
<path id="Vector_30" d="M97.1374 30.437L54.3662 49.3243L2.22601 30.437L50.0212 8.69629L73.4829 19.5218L74.3234 19.9104L97.1374 30.437Z" fill="#4D8AF0"/>
<path id="Vector_31" opacity="0.15" d="M97.1374 30.437L54.3662 49.3243L2.22601 30.437L50.0212 8.69629L73.4829 19.5218L74.3234 19.9104L97.1374 30.437Z" fill="black"/>
<path id="Vector_32" d="M28.364 30.3691L24.5621 53.4686C24.5621 53.4686 51.8543 44.6364 75.6161 53.4686L72.0857 29.0103C72.0857 29.0103 40.177 25.0698 28.364 30.3691Z" fill="#4D8AF0"/>
</g>
<g id="holder">
<path id="Vector_33" d="M73.5446 32.6904L74.2542 32.6699L73.8478 19.176L73.1497 19.5776L73.5446 32.6904Z" fill="#F5F5F5"/>
<path id="Vector_34" d="M73.9671 36.7684C72.083 36.9362 70.4617 36.018 70.3459 34.7175C70.23 33.4169 71.6635 32.2266 73.5476 32.0588C75.4317 31.8909 77.053 32.8092 77.1688 34.1097C77.2846 35.4102 75.8512 36.6006 73.9671 36.7684Z" fill="#F5F5F5"/>
</g>
</g>
<defs>
<linearGradient id="paint0_linear" x1="31.5902" y1="58.2783" x2="36.0432" y2="49.3102" gradientUnits="userSpaceOnUse">
<stop stop-color="#808080" stop-opacity="0.25"/>
<stop offset="0.53514" stop-color="#808080" stop-opacity="0.12"/>
<stop offset="1" stop-color="#808080" stop-opacity="0.1"/>
</linearGradient>
</defs>
</svg>
